<?xml version="1.0" encoding="utf-8" standalone="no"?>
<!DOCTYPE svg PUBLIC "-//W3C//DTD SVG 1.1//EN"
  "http://www.w3.org/Graphics/SVG/1.1/DTD/svg11.dtd">
<svg xmlns:xlink="http://www.w3.org/1999/xlink" width="708.39625pt" height="403.114375pt" viewBox="0 0 708.39625 403.114375" xmlns="http://www.w3.org/2000/svg" version="1.1">
 <metadata>
  <rdf:RDF xmlns:dc="http://purl.org/dc/elements/1.1/" xmlns:cc="http://creativecommons.org/ns#" xmlns:rdf="http://www.w3.org/1999/02/22-rdf-syntax-ns#">
   <cc:Work>
    <dc:type rdf:resource="http://purl.org/dc/dcmitype/StillImage"/>
    <dc:date>2023-06-27T21:02:50.770733</dc:date>
    <dc:format>image/svg+xml</dc:format>
    <dc:creator>
     <cc:Agent>
      <dc:title>Matplotlib v3.5.1, https://matplotlib.org/</dc:title>
     </cc:Agent>
    </dc:creator>
   </cc:Work>
  </rdf:RDF>
 </metadata>
 <defs>
  <style type="text/css">*{stroke-linejoin: round; stroke-linecap: butt}</style>
 </defs>
 <g id="figure_1">
  <g id="patch_1">
   <path d="M 0 403.114375 
L 708.39625 403.114375 
L 708.39625 -0 
L 0 -0 
z
" style="fill: #ffffff"/>
  </g>
  <g id="axes_1">
   <g id="patch_2">
    <path d="M 50.14375 365.558125 
L 638.63375 365.558125 
L 638.63375 22.318125 
L 50.14375 22.318125 
z
" style="fill: #ffffff"/>
   </g>
   <g id="matplotlib.axis_1">
    <g id="xtick_1">
     <g id="line2d_1">
      <defs>
       <path id="m34dc3ea86b" d="M 0 0 
L 0 3.5 
" style="stroke: #000000; stroke-width: 0.8"/>
      </defs>
      <g>
       <use xlink:href="#m34dc3ea86b" x="76.893295" y="365.558125" style="stroke: #000000; stroke-width: 0.8"/>
      </g>
     </g>
     <g id="text_1">
      <!-- 1840 -->
      <g transform="translate(64.168295 380.156562)scale(0.1 -0.1)">
       <defs>
        <path id="DejaVuSans-31" d="M 794 531 
L 1825 531 
L 1825 4091 
L 703 3866 
L 703 4441 
L 1819 4666 
L 2450 4666 
L 2450 531 
L 3481 531 
L 3481 0 
L 794 0 
L 794 531 
z
" transform="scale(0.015625)"/>
        <path id="DejaVuSans-38" d="M 2034 2216 
Q 1584 2216 1326 1975 
Q 1069 1734 1069 1313 
Q 1069 891 1326 650 
Q 1584 409 2034 409 
Q 2484 409 2743 651 
Q 3003 894 3003 1313 
Q 3003 1734 2745 1975 
Q 2488 2216 2034 2216 
z
M 1403 2484 
Q 997 2584 770 2862 
Q 544 3141 544 3541 
Q 544 4100 942 4425 
Q 1341 4750 2034 4750 
Q 2731 4750 3128 4425 
Q 3525 4100 3525 3541 
Q 3525 3141 3298 2862 
Q 3072 2584 2669 2484 
Q 3125 2378 3379 2068 
Q 3634 1759 3634 1313 
Q 3634 634 3220 271 
Q 2806 -91 2034 -91 
Q 1263 -91 848 271 
Q 434 634 434 1313 
Q 434 1759 690 2068 
Q 947 2378 1403 2484 
z
M 1172 3481 
Q 1172 3119 1398 2916 
Q 1625 2713 2034 2713 
Q 2441 2713 2670 2916 
Q 2900 3119 2900 3481 
Q 2900 3844 2670 4047 
Q 2441 4250 2034 4250 
Q 1625 4250 1398 4047 
Q 1172 3844 1172 3481 
z
" transform="scale(0.015625)"/>
        <path id="DejaVuSans-34" d="M 2419 4116 
L 825 1625 
L 2419 1625 
L 2419 4116 
z
M 2253 4666 
L 3047 4666 
L 3047 1625 
L 3713 1625 
L 3713 1100 
L 3047 1100 
L 3047 0 
L 2419 0 
L 2419 1100 
L 313 1100 
L 313 1709 
L 2253 4666 
z
" transform="scale(0.015625)"/>
        <path id="DejaVuSans-30" d="M 2034 4250 
Q 1547 4250 1301 3770 
Q 1056 3291 1056 2328 
Q 1056 1369 1301 889 
Q 1547 409 2034 409 
Q 2525 409 2770 889 
Q 3016 1369 3016 2328 
Q 3016 3291 2770 3770 
Q 2525 4250 2034 4250 
z
M 2034 4750 
Q 2819 4750 3233 4129 
Q 3647 3509 3647 2328 
Q 3647 1150 3233 529 
Q 2819 -91 2034 -91 
Q 1250 -91 836 529 
Q 422 1150 422 2328 
Q 422 3509 836 4129 
Q 1250 4750 2034 4750 
z
" transform="scale(0.015625)"/>
       </defs>
       <use xlink:href="#DejaVuSans-31"/>
       <use xlink:href="#DejaVuSans-38" x="63.623047"/>
       <use xlink:href="#DejaVuSans-34" x="127.246094"/>
       <use xlink:href="#DejaVuSans-30" x="190.869141"/>
      </g>
     </g>
    </g>
    <g id="xtick_2">
     <g id="line2d_2">
      <g>
       <use xlink:href="#m34dc3ea86b" x="143.767159" y="365.558125" style="stroke: #000000; stroke-width: 0.8"/>
      </g>
     </g>
     <g id="text_2">
      <!-- 1850 -->
      <g transform="translate(131.042159 380.156562)scale(0.1 -0.1)">
       <defs>
        <path id="DejaVuSans-35" d="M 691 4666 
L 3169 4666 
L 3169 4134 
L 1269 4134 
L 1269 2991 
Q 1406 3038 1543 3061 
Q 1681 3084 1819 3084 
Q 2600 3084 3056 2656 
Q 3513 2228 3513 1497 
Q 3513 744 3044 326 
Q 2575 -91 1722 -91 
Q 1428 -91 1123 -41 
Q 819 9 494 109 
L 494 744 
Q 775 591 1075 516 
Q 1375 441 1709 441 
Q 2250 441 2565 725 
Q 2881 1009 2881 1497 
Q 2881 1984 2565 2268 
Q 2250 2553 1709 2553 
Q 1456 2553 1204 2497 
Q 953 2441 691 2322 
L 691 4666 
z
" transform="scale(0.015625)"/>
       </defs>
       <use xlink:href="#DejaVuSans-31"/>
       <use xlink:href="#DejaVuSans-38" x="63.623047"/>
       <use xlink:href="#DejaVuSans-35" x="127.246094"/>
       <use xlink:href="#DejaVuSans-30" x="190.869141"/>
      </g>
     </g>
    </g>
    <g id="xtick_3">
     <g id="line2d_3">
      <g>
       <use xlink:href="#m34dc3ea86b" x="210.641023" y="365.558125" style="stroke: #000000; stroke-width: 0.8"/>
      </g>
     </g>
     <g id="text_3">
      <!-- 1860 -->
      <g transform="translate(197.916023 380.156562)scale(0.1 -0.1)">
       <defs>
        <path id="DejaVuSans-36" d="M 2113 2584 
Q 1688 2584 1439 2293 
Q 1191 2003 1191 1497 
Q 1191 994 1439 701 
Q 1688 409 2113 409 
Q 2538 409 2786 701 
Q 3034 994 3034 1497 
Q 3034 2003 2786 2293 
Q 2538 2584 2113 2584 
z
M 3366 4563 
L 3366 3988 
Q 3128 4100 2886 4159 
Q 2644 4219 2406 4219 
Q 1781 4219 1451 3797 
Q 1122 3375 1075 2522 
Q 1259 2794 1537 2939 
Q 1816 3084 2150 3084 
Q 2853 3084 3261 2657 
Q 3669 2231 3669 1497 
Q 3669 778 3244 343 
Q 2819 -91 2113 -91 
Q 1303 -91 875 529 
Q 447 1150 447 2328 
Q 447 3434 972 4092 
Q 1497 4750 2381 4750 
Q 2619 4750 2861 4703 
Q 3103 4656 3366 4563 
z
" transform="scale(0.015625)"/>
       </defs>
       <use xlink:href="#DejaVuSans-31"/>
       <use xlink:href="#DejaVuSans-38" x="63.623047"/>
       <use xlink:href="#DejaVuSans-36" x="127.246094"/>
       <use xlink:href="#DejaVuSans-30" x="190.869141"/>
      </g>
     </g>
    </g>
    <g id="xtick_4">
     <g id="line2d_4">
      <g>
       <use xlink:href="#m34dc3ea86b" x="277.514886" y="365.558125" style="stroke: #000000; stroke-width: 0.8"/>
      </g>
     </g>
     <g id="text_4">
      <!-- 1870 -->
      <g transform="translate(264.789886 380.156562)scale(0.1 -0.1)">
       <defs>
        <path id="DejaVuSans-37" d="M 525 4666 
L 3525 4666 
L 3525 4397 
L 1831 0 
L 1172 0 
L 2766 4134 
L 525 4134 
L 525 4666 
z
" transform="scale(0.015625)"/>
       </defs>
       <use xlink:href="#DejaVuSans-31"/>
       <use xlink:href="#DejaVuSans-38" x="63.623047"/>
       <use xlink:href="#DejaVuSans-37" x="127.246094"/>
       <use xlink:href="#DejaVuSans-30" x="190.869141"/>
      </g>
     </g>
    </g>
    <g id="xtick_5">
     <g id="line2d_5">
      <g>
       <use xlink:href="#m34dc3ea86b" x="344.38875" y="365.558125" style="stroke: #000000; stroke-width: 0.8"/>
      </g>
     </g>
     <g id="text_5">
      <!-- 1880 -->
      <g transform="translate(331.66375 380.156562)scale(0.1 -0.1)">
       <use xlink:href="#DejaVuSans-31"/>
       <use xlink:href="#DejaVuSans-38" x="63.623047"/>
       <use xlink:href="#DejaVuSans-38" x="127.246094"/>
       <use xlink:href="#DejaVuSans-30" x="190.869141"/>
      </g>
     </g>
    </g>
    <g id="xtick_6">
     <g id="line2d_6">
      <g>
       <use xlink:href="#m34dc3ea86b" x="411.262614" y="365.558125" style="stroke: #000000; stroke-width: 0.8"/>
      </g>
     </g>
     <g id="text_6">
      <!-- 1890 -->
      <g transform="translate(398.537614 380.156562)scale(0.1 -0.1)">
       <defs>
        <path id="DejaVuSans-39" d="M 703 97 
L 703 672 
Q 941 559 1184 500 
Q 1428 441 1663 441 
Q 2288 441 2617 861 
Q 2947 1281 2994 2138 
Q 2813 1869 2534 1725 
Q 2256 1581 1919 1581 
Q 1219 1581 811 2004 
Q 403 2428 403 3163 
Q 403 3881 828 4315 
Q 1253 4750 1959 4750 
Q 2769 4750 3195 4129 
Q 3622 3509 3622 2328 
Q 3622 1225 3098 567 
Q 2575 -91 1691 -91 
Q 1453 -91 1209 -44 
Q 966 3 703 97 
z
M 1959 2075 
Q 2384 2075 2632 2365 
Q 2881 2656 2881 3163 
Q 2881 3666 2632 3958 
Q 2384 4250 1959 4250 
Q 1534 4250 1286 3958 
Q 1038 3666 1038 3163 
Q 1038 2656 1286 2365 
Q 1534 2075 1959 2075 
z
" transform="scale(0.015625)"/>
       </defs>
       <use xlink:href="#DejaVuSans-31"/>
       <use xlink:href="#DejaVuSans-38" x="63.623047"/>
       <use xlink:href="#DejaVuSans-39" x="127.246094"/>
       <use xlink:href="#DejaVuSans-30" x="190.869141"/>
      </g>
     </g>
    </g>
    <g id="xtick_7">
     <g id="line2d_7">
      <g>
       <use xlink:href="#m34dc3ea86b" x="478.136477" y="365.558125" style="stroke: #000000; stroke-width: 0.8"/>
      </g>
     </g>
     <g id="text_7">
      <!-- 1900 -->
      <g transform="translate(465.411477 380.156562)scale(0.1 -0.1)">
       <use xlink:href="#DejaVuSans-31"/>
       <use xlink:href="#DejaVuSans-39" x="63.623047"/>
       <use xlink:href="#DejaVuSans-30" x="127.246094"/>
       <use xlink:href="#DejaVuSans-30" x="190.869141"/>
      </g>
     </g>
    </g>
    <g id="xtick_8">
     <g id="line2d_8">
      <g>
       <use xlink:href="#m34dc3ea86b" x="545.010341" y="365.558125" style="stroke: #000000; stroke-width: 0.8"/>
      </g>
     </g>
     <g id="text_8">
      <!-- 1910 -->
      <g transform="translate(532.285341 380.156562)scale(0.1 -0.1)">
       <use xlink:href="#DejaVuSans-31"/>
       <use xlink:href="#DejaVuSans-39" x="63.623047"/>
       <use xlink:href="#DejaVuSans-31" x="127.246094"/>
       <use xlink:href="#DejaVuSans-30" x="190.869141"/>
      </g>
     </g>
    </g>
    <g id="xtick_9">
     <g id="line2d_9">
      <g>
       <use xlink:href="#m34dc3ea86b" x="611.884205" y="365.558125" style="stroke: #000000; stroke-width: 0.8"/>
      </g>
     </g>
     <g id="text_9">
      <!-- 1920 -->
      <g transform="translate(599.159205 380.156562)scale(0.1 -0.1)">
       <defs>
        <path id="DejaVuSans-32" d="M 1228 531 
L 3431 531 
L 3431 0 
L 469 0 
L 469 531 
Q 828 903 1448 1529 
Q 2069 2156 2228 2338 
Q 2531 2678 2651 2914 
Q 2772 3150 2772 3378 
Q 2772 3750 2511 3984 
Q 2250 4219 1831 4219 
Q 1534 4219 1204 4116 
Q 875 4013 500 3803 
L 500 4441 
Q 881 4594 1212 4672 
Q 1544 4750 1819 4750 
Q 2544 4750 2975 4387 
Q 3406 4025 3406 3419 
Q 3406 3131 3298 2873 
Q 3191 2616 2906 2266 
Q 2828 2175 2409 1742 
Q 1991 1309 1228 531 
z
" transform="scale(0.015625)"/>
       </defs>
       <use xlink:href="#DejaVuSans-31"/>
       <use xlink:href="#DejaVuSans-39" x="63.623047"/>
       <use xlink:href="#DejaVuSans-32" x="127.246094"/>
       <use xlink:href="#DejaVuSans-30" x="190.869141"/>
      </g>
     </g>
    </g>
    <g id="text_10">
     <!-- Time period -->
     <g transform="translate(314.637187 393.834687)scale(0.1 -0.1)">
      <defs>
       <path id="DejaVuSans-54" d="M -19 4666 
L 3928 4666 
L 3928 4134 
L 2272 4134 
L 2272 0 
L 1638 0 
L 1638 4134 
L -19 4134 
L -19 4666 
z
" transform="scale(0.015625)"/>
       <path id="DejaVuSans-69" d="M 603 3500 
L 1178 3500 
L 1178 0 
L 603 0 
L 603 3500 
z
M 603 4863 
L 1178 4863 
L 1178 4134 
L 603 4134 
L 603 4863 
z
" transform="scale(0.015625)"/>
       <path id="DejaVuSans-6d" d="M 3328 2828 
Q 3544 3216 3844 3400 
Q 4144 3584 4550 3584 
Q 5097 3584 5394 3201 
Q 5691 2819 5691 2113 
L 5691 0 
L 5113 0 
L 5113 2094 
Q 5113 2597 4934 2840 
Q 4756 3084 4391 3084 
Q 3944 3084 3684 2787 
Q 3425 2491 3425 1978 
L 3425 0 
L 2847 0 
L 2847 2094 
Q 2847 2600 2669 2842 
Q 2491 3084 2119 3084 
Q 1678 3084 1418 2786 
Q 1159 2488 1159 1978 
L 1159 0 
L 581 0 
L 581 3500 
L 1159 3500 
L 1159 2956 
Q 1356 3278 1631 3431 
Q 1906 3584 2284 3584 
Q 2666 3584 2933 3390 
Q 3200 3197 3328 2828 
z
" transform="scale(0.015625)"/>
       <path id="DejaVuSans-65" d="M 3597 1894 
L 3597 1613 
L 953 1613 
Q 991 1019 1311 708 
Q 1631 397 2203 397 
Q 2534 397 2845 478 
Q 3156 559 3463 722 
L 3463 178 
Q 3153 47 2828 -22 
Q 2503 -91 2169 -91 
Q 1331 -91 842 396 
Q 353 884 353 1716 
Q 353 2575 817 3079 
Q 1281 3584 2069 3584 
Q 2775 3584 3186 3129 
Q 3597 2675 3597 1894 
z
M 3022 2063 
Q 3016 2534 2758 2815 
Q 2500 3097 2075 3097 
Q 1594 3097 1305 2825 
Q 1016 2553 972 2059 
L 3022 2063 
z
" transform="scale(0.015625)"/>
       <path id="DejaVuSans-20" transform="scale(0.015625)"/>
       <path id="DejaVuSans-70" d="M 1159 525 
L 1159 -1331 
L 581 -1331 
L 581 3500 
L 1159 3500 
L 1159 2969 
Q 1341 3281 1617 3432 
Q 1894 3584 2278 3584 
Q 2916 3584 3314 3078 
Q 3713 2572 3713 1747 
Q 3713 922 3314 415 
Q 2916 -91 2278 -91 
Q 1894 -91 1617 61 
Q 1341 213 1159 525 
z
M 3116 1747 
Q 3116 2381 2855 2742 
Q 2594 3103 2138 3103 
Q 1681 3103 1420 2742 
Q 1159 2381 1159 1747 
Q 1159 1113 1420 752 
Q 1681 391 2138 391 
Q 2594 391 2855 752 
Q 3116 1113 3116 1747 
z
" transform="scale(0.015625)"/>
       <path id="DejaVuSans-72" d="M 2631 2963 
Q 2534 3019 2420 3045 
Q 2306 3072 2169 3072 
Q 1681 3072 1420 2755 
Q 1159 2438 1159 1844 
L 1159 0 
L 581 0 
L 581 3500 
L 1159 3500 
L 1159 2956 
Q 1341 3275 1631 3429 
Q 1922 3584 2338 3584 
Q 2397 3584 2469 3576 
Q 2541 3569 2628 3553 
L 2631 2963 
z
" transform="scale(0.015625)"/>
       <path id="DejaVuSans-6f" d="M 1959 3097 
Q 1497 3097 1228 2736 
Q 959 2375 959 1747 
Q 959 1119 1226 758 
Q 1494 397 1959 397 
Q 2419 397 2687 759 
Q 2956 1122 2956 1747 
Q 2956 2369 2687 2733 
Q 2419 3097 1959 3097 
z
M 1959 3584 
Q 2709 3584 3137 3096 
Q 3566 2609 3566 1747 
Q 3566 888 3137 398 
Q 2709 -91 1959 -91 
Q 1206 -91 779 398 
Q 353 888 353 1747 
Q 353 2609 779 3096 
Q 1206 3584 1959 3584 
z
" transform="scale(0.015625)"/>
       <path id="DejaVuSans-64" d="M 2906 2969 
L 2906 4863 
L 3481 4863 
L 3481 0 
L 2906 0 
L 2906 525 
Q 2725 213 2448 61 
Q 2172 -91 1784 -91 
Q 1150 -91 751 415 
Q 353 922 353 1747 
Q 353 2572 751 3078 
Q 1150 3584 1784 3584 
Q 2172 3584 2448 3432 
Q 2725 3281 2906 2969 
z
M 947 1747 
Q 947 1113 1208 752 
Q 1469 391 1925 391 
Q 2381 391 2643 752 
Q 2906 1113 2906 1747 
Q 2906 2381 2643 2742 
Q 2381 3103 1925 3103 
Q 1469 3103 1208 2742 
Q 947 2381 947 1747 
z
" transform="scale(0.015625)"/>
      </defs>
      <use xlink:href="#DejaVuSans-54"/>
      <use xlink:href="#DejaVuSans-69" x="57.958984"/>
      <use xlink:href="#DejaVuSans-6d" x="85.742188"/>
      <use xlink:href="#DejaVuSans-65" x="183.154297"/>
      <use xlink:href="#DejaVuSans-20" x="244.677734"/>
      <use xlink:href="#DejaVuSans-70" x="276.464844"/>
      <use xlink:href="#DejaVuSans-65" x="339.941406"/>
      <use xlink:href="#DejaVuSans-72" x="401.464844"/>
      <use xlink:href="#DejaVuSans-69" x="442.578125"/>
      <use xlink:href="#DejaVuSans-6f" x="470.361328"/>
      <use xlink:href="#DejaVuSans-64" x="531.542969"/>
     </g>
    </g>
   </g>
   <g id="matplotlib.axis_2">
    <g id="ytick_1">
     <g id="line2d_10">
      <defs>
       <path id="m0c3a6d4a5a" d="M 0 0 
L -3.5 0 
" style="stroke: #000000; stroke-width: 0.8"/>
      </defs>
      <g>
       <use xlink:href="#m0c3a6d4a5a" x="50.14375" y="314.614287" style="stroke: #000000; stroke-width: 0.8"/>
      </g>
     </g>
     <g id="text_11">
      <!-- 0.08 -->
      <g transform="translate(20.878125 318.413506)scale(0.1 -0.1)">
       <defs>
        <path id="DejaVuSans-2e" d="M 684 794 
L 1344 794 
L 1344 0 
L 684 0 
L 684 794 
z
" transform="scale(0.015625)"/>
       </defs>
       <use xlink:href="#DejaVuSans-30"/>
       <use xlink:href="#DejaVuSans-2e" x="63.623047"/>
       <use xlink:href="#DejaVuSans-30" x="95.410156"/>
       <use xlink:href="#DejaVuSans-38" x="159.033203"/>
      </g>
     </g>
    </g>
    <g id="ytick_2">
     <g id="line2d_11">
      <g>
       <use xlink:href="#m0c3a6d4a5a" x="50.14375" y="254.500289" style="stroke: #000000; stroke-width: 0.8"/>
      </g>
     </g>
     <g id="text_12">
      <!-- 0.10 -->
      <g transform="translate(20.878125 258.299508)scale(0.1 -0.1)">
       <use xlink:href="#DejaVuSans-30"/>
       <use xlink:href="#DejaVuSans-2e" x="63.623047"/>
       <use xlink:href="#DejaVuSans-31" x="95.410156"/>
       <use xlink:href="#DejaVuSans-30" x="159.033203"/>
      </g>
     </g>
    </g>
    <g id="ytick_3">
     <g id="line2d_12">
      <g>
       <use xlink:href="#m0c3a6d4a5a" x="50.14375" y="194.386291" style="stroke: #000000; stroke-width: 0.8"/>
      </g>
     </g>
     <g id="text_13">
      <!-- 0.12 -->
      <g transform="translate(20.878125 198.18551)scale(0.1 -0.1)">
       <use xlink:href="#DejaVuSans-30"/>
       <use xlink:href="#DejaVuSans-2e" x="63.623047"/>
       <use xlink:href="#DejaVuSans-31" x="95.410156"/>
       <use xlink:href="#DejaVuSans-32" x="159.033203"/>
      </g>
     </g>
    </g>
    <g id="ytick_4">
     <g id="line2d_13">
      <g>
       <use xlink:href="#m0c3a6d4a5a" x="50.14375" y="134.272293" style="stroke: #000000; stroke-width: 0.8"/>
      </g>
     </g>
     <g id="text_14">
      <!-- 0.14 -->
      <g transform="translate(20.878125 138.071512)scale(0.1 -0.1)">
       <use xlink:href="#DejaVuSans-30"/>
       <use xlink:href="#DejaVuSans-2e" x="63.623047"/>
       <use xlink:href="#DejaVuSans-31" x="95.410156"/>
       <use xlink:href="#DejaVuSans-34" x="159.033203"/>
      </g>
     </g>
    </g>
    <g id="ytick_5">
     <g id="line2d_14">
      <g>
       <use xlink:href="#m0c3a6d4a5a" x="50.14375" y="74.158295" style="stroke: #000000; stroke-width: 0.8"/>
      </g>
     </g>
     <g id="text_15">
      <!-- 0.16 -->
      <g transform="translate(20.878125 77.957514)scale(0.1 -0.1)">
       <use xlink:href="#DejaVuSans-30"/>
       <use xlink:href="#DejaVuSans-2e" x="63.623047"/>
       <use xlink:href="#DejaVuSans-31" x="95.410156"/>
       <use xlink:href="#DejaVuSans-36" x="159.033203"/>
      </g>
     </g>
    </g>
    <g id="text_16">
     <!-- Relative frequency -->
     <g transform="translate(14.798438 240.767812)rotate(-90)scale(0.1 -0.1)">
      <defs>
       <path id="DejaVuSans-52" d="M 2841 2188 
Q 3044 2119 3236 1894 
Q 3428 1669 3622 1275 
L 4263 0 
L 3584 0 
L 2988 1197 
Q 2756 1666 2539 1819 
Q 2322 1972 1947 1972 
L 1259 1972 
L 1259 0 
L 628 0 
L 628 4666 
L 2053 4666 
Q 2853 4666 3247 4331 
Q 3641 3997 3641 3322 
Q 3641 2881 3436 2590 
Q 3231 2300 2841 2188 
z
M 1259 4147 
L 1259 2491 
L 2053 2491 
Q 2509 2491 2742 2702 
Q 2975 2913 2975 3322 
Q 2975 3731 2742 3939 
Q 2509 4147 2053 4147 
L 1259 4147 
z
" transform="scale(0.015625)"/>
       <path id="DejaVuSans-6c" d="M 603 4863 
L 1178 4863 
L 1178 0 
L 603 0 
L 603 4863 
z
" transform="scale(0.015625)"/>
       <path id="DejaVuSans-61" d="M 2194 1759 
Q 1497 1759 1228 1600 
Q 959 1441 959 1056 
Q 959 750 1161 570 
Q 1363 391 1709 391 
Q 2188 391 2477 730 
Q 2766 1069 2766 1631 
L 2766 1759 
L 2194 1759 
z
M 3341 1997 
L 3341 0 
L 2766 0 
L 2766 531 
Q 2569 213 2275 61 
Q 1981 -91 1556 -91 
Q 1019 -91 701 211 
Q 384 513 384 1019 
Q 384 1609 779 1909 
Q 1175 2209 1959 2209 
L 2766 2209 
L 2766 2266 
Q 2766 2663 2505 2880 
Q 2244 3097 1772 3097 
Q 1472 3097 1187 3025 
Q 903 2953 641 2809 
L 641 3341 
Q 956 3463 1253 3523 
Q 1550 3584 1831 3584 
Q 2591 3584 2966 3190 
Q 3341 2797 3341 1997 
z
" transform="scale(0.015625)"/>
       <path id="DejaVuSans-74" d="M 1172 4494 
L 1172 3500 
L 2356 3500 
L 2356 3053 
L 1172 3053 
L 1172 1153 
Q 1172 725 1289 603 
Q 1406 481 1766 481 
L 2356 481 
L 2356 0 
L 1766 0 
Q 1100 0 847 248 
Q 594 497 594 1153 
L 594 3053 
L 172 3053 
L 172 3500 
L 594 3500 
L 594 4494 
L 1172 4494 
z
" transform="scale(0.015625)"/>
       <path id="DejaVuSans-76" d="M 191 3500 
L 800 3500 
L 1894 563 
L 2988 3500 
L 3597 3500 
L 2284 0 
L 1503 0 
L 191 3500 
z
" transform="scale(0.015625)"/>
       <path id="DejaVuSans-66" d="M 2375 4863 
L 2375 4384 
L 1825 4384 
Q 1516 4384 1395 4259 
Q 1275 4134 1275 3809 
L 1275 3500 
L 2222 3500 
L 2222 3053 
L 1275 3053 
L 1275 0 
L 697 0 
L 697 3053 
L 147 3053 
L 147 3500 
L 697 3500 
L 697 3744 
Q 697 4328 969 4595 
Q 1241 4863 1831 4863 
L 2375 4863 
z
" transform="scale(0.015625)"/>
       <path id="DejaVuSans-71" d="M 947 1747 
Q 947 1113 1208 752 
Q 1469 391 1925 391 
Q 2381 391 2643 752 
Q 2906 1113 2906 1747 
Q 2906 2381 2643 2742 
Q 2381 3103 1925 3103 
Q 1469 3103 1208 2742 
Q 947 2381 947 1747 
z
M 2906 525 
Q 2725 213 2448 61 
Q 2172 -91 1784 -91 
Q 1150 -91 751 415 
Q 353 922 353 1747 
Q 353 2572 751 3078 
Q 1150 3584 1784 3584 
Q 2172 3584 2448 3432 
Q 2725 3281 2906 2969 
L 2906 3500 
L 3481 3500 
L 3481 -1331 
L 2906 -1331 
L 2906 525 
z
" transform="scale(0.015625)"/>
       <path id="DejaVuSans-75" d="M 544 1381 
L 544 3500 
L 1119 3500 
L 1119 1403 
Q 1119 906 1312 657 
Q 1506 409 1894 409 
Q 2359 409 2629 706 
Q 2900 1003 2900 1516 
L 2900 3500 
L 3475 3500 
L 3475 0 
L 2900 0 
L 2900 538 
Q 2691 219 2414 64 
Q 2138 -91 1772 -91 
Q 1169 -91 856 284 
Q 544 659 544 1381 
z
M 1991 3584 
L 1991 3584 
z
" transform="scale(0.015625)"/>
       <path id="DejaVuSans-6e" d="M 3513 2113 
L 3513 0 
L 2938 0 
L 2938 2094 
Q 2938 2591 2744 2837 
Q 2550 3084 2163 3084 
Q 1697 3084 1428 2787 
Q 1159 2491 1159 1978 
L 1159 0 
L 581 0 
L 581 3500 
L 1159 3500 
L 1159 2956 
Q 1366 3272 1645 3428 
Q 1925 3584 2291 3584 
Q 2894 3584 3203 3211 
Q 3513 2838 3513 2113 
z
" transform="scale(0.015625)"/>
       <path id="DejaVuSans-63" d="M 3122 3366 
L 3122 2828 
Q 2878 2963 2633 3030 
Q 2388 3097 2138 3097 
Q 1578 3097 1268 2742 
Q 959 2388 959 1747 
Q 959 1106 1268 751 
Q 1578 397 2138 397 
Q 2388 397 2633 464 
Q 2878 531 3122 666 
L 3122 134 
Q 2881 22 2623 -34 
Q 2366 -91 2075 -91 
Q 1284 -91 818 406 
Q 353 903 353 1747 
Q 353 2603 823 3093 
Q 1294 3584 2113 3584 
Q 2378 3584 2631 3529 
Q 2884 3475 3122 3366 
z
" transform="scale(0.015625)"/>
       <path id="DejaVuSans-79" d="M 2059 -325 
Q 1816 -950 1584 -1140 
Q 1353 -1331 966 -1331 
L 506 -1331 
L 506 -850 
L 844 -850 
Q 1081 -850 1212 -737 
Q 1344 -625 1503 -206 
L 1606 56 
L 191 3500 
L 800 3500 
L 1894 763 
L 2988 3500 
L 3597 3500 
L 2059 -325 
z
" transform="scale(0.015625)"/>
      </defs>
      <use xlink:href="#DejaVuSans-52"/>
      <use xlink:href="#DejaVuSans-65" x="64.982422"/>
      <use xlink:href="#DejaVuSans-6c" x="126.505859"/>
      <use xlink:href="#DejaVuSans-61" x="154.289062"/>
      <use xlink:href="#DejaVuSans-74" x="215.568359"/>
      <use xlink:href="#DejaVuSans-69" x="254.777344"/>
      <use xlink:href="#DejaVuSans-76" x="282.560547"/>
      <use xlink:href="#DejaVuSans-65" x="341.740234"/>
      <use xlink:href="#DejaVuSans-20" x="403.263672"/>
      <use xlink:href="#DejaVuSans-66" x="435.050781"/>
      <use xlink:href="#DejaVuSans-72" x="470.255859"/>
      <use xlink:href="#DejaVuSans-65" x="509.119141"/>
      <use xlink:href="#DejaVuSans-71" x="570.642578"/>
      <use xlink:href="#DejaVuSans-75" x="634.119141"/>
      <use xlink:href="#DejaVuSans-65" x="697.498047"/>
      <use xlink:href="#DejaVuSans-6e" x="759.021484"/>
      <use xlink:href="#DejaVuSans-63" x="822.400391"/>
      <use xlink:href="#DejaVuSans-79" x="877.380859"/>
     </g>
    </g>
   </g>
   <g id="line2d_15">
    <path d="M 163.829318 96.982359 
L 177.204091 100.211152 
L 177.204091 100.211152 
L 177.204091 100.211152 
L 197.26625 104.944307 
L 210.641023 108.028891 
L 217.328409 109.550419 
L 217.328409 109.550419 
L 224.015795 111.057024 
L 224.015795 111.057024 
L 224.015795 111.057024 
L 230.703182 112.548051 
L 230.703182 112.548051 
L 237.390568 114.024166 
L 237.390568 114.024166 
L 244.077955 115.485382 
L 244.077955 115.485382 
L 277.514886 122.578611 
L 284.202273 123.963437 
L 284.202273 123.963437 
L 290.889659 125.341164 
L 297.577045 126.71171 
L 297.577045 126.71171 
L 297.577045 126.71171 
L 310.951818 129.434775 
L 317.639205 130.78908 
L 351.076136 136.72925 
L 357.763523 138.132075 
L 357.763523 138.132075 
L 364.450909 139.532862 
L 364.450909 139.532862 
L 364.450909 139.532862 
L 377.825682 140.433951 
L 391.200455 138.936455 
L 391.200455 138.936455 
L 404.575227 138.23856 
L 411.262614 138.269311 
L 417.95 138.186076 
L 424.637386 137.089189 
L 424.637386 137.089189 
L 424.637386 137.089189 
L 431.324773 135.800722 
L 438.012159 134.454249 
L 438.012159 134.454249 
L 438.012159 134.454249 
L 438.012159 134.454249 
L 451.386932 131.940594 
L 464.761705 129.841751 
L 464.761705 129.841751 
L 471.449091 128.754509 
L 471.449091 128.754509 
L 471.449091 128.754509 
L 491.51125 124.745874 
L 491.51125 124.745874 
L 491.51125 124.745874 
L 491.51125 124.745874 
L 498.198636 123.238662 
L 498.198636 123.238662 
L 498.198636 123.238662 
L 498.198636 123.238662 
L 504.886023 122.024444 
L 504.886023 122.024444 
L 504.886023 122.024444 
L 518.260795 119.570489 
L 518.260795 119.570489 
L 518.260795 119.570489 
L 518.260795 119.570489 
L 518.260795 119.570489 
L 518.260795 119.570489 
L 524.948182 117.96374 
L 524.948182 117.96374 
L 531.635568 116.318655 
L 531.635568 116.318655 
L 531.635568 116.318655 
L 531.635568 116.318655 
L 538.322955 114.694914 
L 545.010341 113.11174 
L 545.010341 113.11174 
L 551.697727 111.571361 
L 551.697727 111.571361 
L 558.385114 110.067314 
L 558.385114 110.067314 
L 558.385114 110.067314 
L 558.385114 110.067314 
L 565.0725 108.592102 
L 565.0725 108.592102 
L 571.759886 107.13322 
L 571.759886 107.13322 
L 585.134659 104.214042 
L 585.134659 104.214042 
L 598.509432 101.222347 
L 611.884205 98.096714 
L 611.884205 98.096714 
L 611.884205 98.096714 
L 611.884205 98.096714 
L 611.884205 98.096714 
L 611.884205 98.096714 
L 611.884205 98.096714 
L 611.884205 98.096714 
L 611.884205 98.096714 
" clip-path="url(#pb1d8c5ad47)" style="fill: none; stroke: #1f77b4; stroke-width: 2.25; stroke-linecap: square"/>
   </g>
   <g id="line2d_16">
    <path d="M 76.893295 79.030067 
L 177.204091 78.993773 
L 190.578864 79.099585 
L 197.26625 79.1349 
L 210.641023 79.144667 
L 250.765341 78.658993 
L 257.452727 78.711162 
L 304.264432 81.315947 
L 344.38875 88.413278 
L 351.076136 89.625464 
L 351.076136 89.625464 
L 351.076136 89.625464 
L 357.763523 90.077293 
L 357.763523 90.077293 
L 364.450909 90.899757 
L 364.450909 90.899757 
L 377.825682 91.678977 
L 384.513068 91.928024 
L 384.513068 91.928024 
L 391.200455 92.12481 
L 397.887841 92.314448 
L 411.262614 92.71411 
L 417.95 92.947054 
L 424.637386 93.338554 
L 424.637386 93.338554 
L 424.637386 93.338554 
L 424.637386 93.338554 
L 424.637386 93.338554 
L 431.324773 94.305537 
L 438.012159 94.070906 
L 444.699545 94.057411 
L 444.699545 94.057411 
L 451.386932 92.933984 
L 451.386932 92.933984 
L 464.761705 89.978827 
L 464.761705 89.978827 
L 471.449091 88.135445 
L 478.136477 85.874054 
L 491.51125 80.822236 
L 491.51125 80.822236 
L 504.886023 78.088897 
L 504.886023 78.088897 
L 511.573409 78.796151 
L 511.573409 78.796151 
L 511.573409 78.796151 
L 518.260795 80.067708 
L 518.260795 80.067708 
L 524.948182 81.422714 
L 538.322955 83.884116 
L 551.697727 86.008081 
L 558.385114 87.005502 
L 571.759886 89.032717 
L 578.447273 90.12883 
L 598.509432 94.084879 
L 605.196818 95.688385 
" clip-path="url(#pb1d8c5ad47)" style="fill: none; stroke: #ff7f0e; stroke-width: 2.25; stroke-linecap: square"/>
   </g>
   <g id="line2d_17">
    <path d="M 76.893295 123.820465 
L 76.893295 123.820465 
L 83.580682 124.973203 
L 83.580682 124.973203 
L 96.955455 127.218325 
L 96.955455 127.218325 
L 96.955455 127.218325 
L 103.642841 128.310021 
L 110.330227 129.381232 
L 110.330227 129.381232 
L 117.017614 130.432739 
L 117.017614 130.432739 
L 117.017614 130.432739 
L 123.705 131.464838 
L 123.705 131.464838 
L 130.392386 132.477578 
L 163.829318 137.248835 
L 177.204091 139.017107 
L 177.204091 139.017107 
L 177.204091 139.017107 
L 177.204091 139.017107 
L 183.891477 139.870796 
L 203.953636 142.307501 
L 203.953636 142.307501 
L 203.953636 142.307501 
L 217.328409 143.838019 
L 217.328409 143.838019 
L 224.015795 144.58688 
L 230.703182 145.3354 
L 237.390568 146.091456 
L 237.390568 146.091456 
L 244.077955 146.855115 
L 244.077955 146.855115 
L 257.452727 148.246624 
L 257.452727 148.246624 
L 264.140114 148.09891 
L 270.8275 147.844614 
L 277.514886 147.94328 
L 284.202273 147.398768 
L 290.889659 146.747585 
L 304.264432 144.742465 
L 317.639205 142.509941 
L 317.639205 142.509941 
L 331.013977 140.559067 
L 337.701364 139.850559 
L 337.701364 139.850559 
L 337.701364 139.850559 
L 337.701364 139.850559 
L 344.38875 138.963075 
L 344.38875 138.963075 
L 344.38875 138.963075 
L 351.076136 137.655131 
L 357.763523 136.259634 
L 371.138295 133.347285 
L 377.825682 131.584189 
L 384.513068 130.55393 
L 391.200455 129.306466 
L 397.887841 127.779247 
L 397.887841 127.779247 
L 397.887841 127.779247 
L 404.575227 126.806245 
L 404.575227 126.806245 
L 411.262614 125.949419 
L 424.637386 124.946317 
L 438.012159 123.946945 
L 444.699545 124.157316 
L 444.699545 124.157316 
L 451.386932 124.496183 
L 451.386932 124.496183 
L 458.074318 124.901301 
L 458.074318 124.901301 
L 464.761705 125.340464 
L 464.761705 125.340464 
L 464.761705 125.340464 
L 471.449091 125.800742 
L 484.823864 126.770673 
L 498.198636 127.805587 
L 498.198636 127.805587 
L 498.198636 127.805587 
L 511.573409 128.908223 
L 518.260795 129.486139 
L 524.948182 130.081909 
L 531.635568 130.695794 
L 531.635568 130.695794 
L 538.322955 131.328444 
L 538.322955 131.328444 
L 545.010341 131.980002 
L 551.697727 132.649622 
L 558.385114 133.336679 
L 565.0725 134.041297 
L 571.759886 134.764599 
L 571.759886 134.764599 
L 571.759886 134.764599 
L 578.447273 135.508577 
L 578.447273 135.508577 
L 598.509432 137.881226 
L 598.509432 137.881226 
L 605.196818 138.722693 
L 611.884205 139.58887 
" clip-path="url(#pb1d8c5ad47)" style="fill: none; stroke: #2ca02c; stroke-width: 2.25; stroke-linecap: square"/>
   </g>
   <g id="line2d_18">
    <path d="M 203.953636 37.919943 
L 250.765341 66.420358 
L 277.514886 82.715685 
L 277.514886 82.715685 
L 297.577045 94.484585 
L 310.951818 102.103054 
L 317.639205 105.886106 
L 317.639205 105.886106 
L 317.639205 105.886106 
L 317.639205 105.886106 
L 317.639205 105.886106 
L 324.326591 109.703729 
L 324.326591 109.703729 
L 324.326591 109.703729 
L 351.076136 126.763038 
L 351.076136 126.763038 
L 357.763523 131.077805 
L 364.450909 135.640406 
L 364.450909 135.640406 
L 364.450909 135.640406 
L 364.450909 135.640406 
L 371.138295 140.136053 
L 371.138295 140.136053 
L 377.825682 144.548138 
L 377.825682 144.548138 
L 377.825682 144.548138 
L 384.513068 148.910315 
L 384.513068 148.910315 
L 391.200455 153.267027 
L 404.575227 160.02582 
L 404.575227 160.02582 
L 417.95 164.540882 
L 417.95 164.540882 
L 417.95 164.540882 
L 424.637386 165.491946 
L 424.637386 165.491946 
L 431.324773 166.32862 
L 438.012159 167.150662 
L 438.012159 167.150662 
L 444.699545 167.774318 
L 444.699545 167.774318 
L 444.699545 167.774318 
L 451.386932 168.231095 
L 451.386932 168.231095 
L 451.386932 168.231095 
L 458.074318 168.814123 
L 458.074318 168.814123 
L 458.074318 168.814123 
L 464.761705 169.133002 
L 471.449091 169.044458 
L 478.136477 168.733609 
L 478.136477 168.733609 
L 484.823864 168.294163 
L 484.823864 168.294163 
L 491.51125 167.879764 
L 498.198636 167.614732 
L 498.198636 167.614732 
L 498.198636 167.614732 
L 498.198636 167.614732 
L 504.886023 168.060465 
L 504.886023 168.060465 
L 504.886023 168.060465 
L 504.886023 168.060465 
L 504.886023 168.060465 
L 504.886023 168.060465 
L 511.573409 168.202261 
L 511.573409 168.202261 
L 511.573409 168.202261 
L 518.260795 168.761703 
L 524.948182 169.555116 
L 524.948182 169.555116 
L 524.948182 169.555116 
L 531.635568 170.400148 
L 538.322955 171.216471 
L 538.322955 171.216471 
L 538.322955 171.216471 
L 538.322955 171.216471 
L 538.322955 171.216471 
L 545.010341 171.977025 
L 545.010341 171.977025 
L 545.010341 171.977025 
L 545.010341 171.977025 
L 551.697727 172.690614 
L 551.697727 172.690614 
L 551.697727 172.690614 
L 558.385114 173.373508 
L 565.0725 174.042178 
L 565.0725 174.042178 
L 565.0725 174.042178 
L 571.759886 174.706814 
L 578.447273 175.379805 
L 585.134659 176.074923 
L 591.822045 176.80225 
L 591.822045 176.80225 
L 591.822045 176.80225 
L 591.822045 176.80225 
L 598.509432 177.573725 
L 605.196818 178.389344 
" clip-path="url(#pb1d8c5ad47)" style="fill: none; stroke: #d62728; stroke-width: 2.25; stroke-linecap: square"/>
   </g>
   <g id="line2d_19">
    <path d="M 76.893295 203.173627 
L 83.580682 203.492306 
L 90.268068 203.759231 
L 90.268068 203.759231 
L 103.642841 204.138419 
L 103.642841 204.138419 
L 117.017614 204.319026 
L 143.767159 204.17908 
L 157.141932 203.943701 
L 157.141932 203.943701 
L 157.141932 203.943701 
L 163.829318 203.810048 
L 163.829318 203.810048 
L 177.204091 203.549947 
L 177.204091 203.549947 
L 183.891477 203.442138 
L 183.891477 203.442138 
L 183.891477 203.442138 
L 183.891477 203.442138 
L 190.578864 203.360525 
L 190.578864 203.360525 
L 190.578864 203.360525 
L 203.953636 203.293016 
L 203.953636 203.293016 
L 210.641023 203.305167 
L 224.015795 203.352564 
L 230.703182 203.28988 
L 244.077955 202.376886 
L 257.452727 200.306431 
L 290.889659 194.728704 
L 290.889659 194.728704 
L 297.577045 192.665344 
L 304.264432 191.363932 
L 304.264432 191.363932 
L 304.264432 191.363932 
L 310.951818 188.934201 
L 310.951818 188.934201 
L 310.951818 188.934201 
L 317.639205 189.066626 
L 317.639205 189.066626 
L 324.326591 189.399017 
L 331.013977 187.966443 
L 331.013977 187.966443 
L 337.701364 188.165695 
L 337.701364 188.165695 
L 344.38875 188.816641 
L 351.076136 190.036168 
L 351.076136 190.036168 
L 351.076136 190.036168 
L 357.763523 191.308269 
L 364.450909 192.441957 
L 371.138295 193.596131 
L 377.825682 195.001951 
L 377.825682 195.001951 
L 377.825682 195.001951 
L 377.825682 195.001951 
L 384.513068 196.524763 
L 384.513068 196.524763 
L 391.200455 197.989712 
L 391.200455 197.989712 
L 391.200455 197.989712 
L 404.575227 200.813586 
L 411.262614 202.184361 
L 411.262614 202.184361 
L 411.262614 202.184361 
L 411.262614 202.184361 
L 417.95 203.537252 
L 424.637386 204.887448 
L 438.012159 207.620182 
L 438.012159 207.620182 
L 444.699545 208.927623 
L 451.386932 210.173386 
L 458.074318 210.914768 
L 464.761705 211.36998 
L 478.136477 211.835692 
L 478.136477 211.835692 
L 491.51125 212.196582 
L 491.51125 212.196582 
L 491.51125 212.196582 
L 498.198636 212.388977 
L 498.198636 212.388977 
L 511.573409 212.807957 
L 511.573409 212.807957 
L 524.948182 213.249041 
L 531.635568 213.464397 
L 538.322955 213.670388 
L 538.322955 213.670388 
L 538.322955 213.670388 
L 545.010341 213.862892 
L 545.010341 213.862892 
L 571.759886 214.411604 
L 571.759886 214.411604 
L 571.759886 214.411604 
L 578.447273 214.48188 
L 578.447273 214.48188 
L 591.822045 214.529522 
L 591.822045 214.529522 
L 591.822045 214.529522 
L 598.509432 214.503731 
L 605.196818 214.443641 
" clip-path="url(#pb1d8c5ad47)" style="fill: none; stroke: #9467bd; stroke-width: 2.25; stroke-linecap: square"/>
   </g>
   <g id="line2d_20">
    <path d="M 90.268068 280.32562 
L 103.642841 276.909771 
L 110.330227 275.188675 
L 110.330227 275.188675 
L 117.017614 273.459972 
L 117.017614 273.459972 
L 117.017614 273.459972 
L 123.705 271.724536 
L 130.392386 269.98341 
L 157.141932 262.983531 
L 157.141932 262.983531 
L 170.516705 259.480272 
L 170.516705 259.480272 
L 170.516705 259.480272 
L 177.204091 257.731459 
L 177.204091 257.731459 
L 183.891477 255.985374 
L 183.891477 255.985374 
L 190.578864 254.241597 
L 190.578864 254.241597 
L 197.26625 252.499569 
L 203.953636 250.75834 
L 210.641023 249.016835 
L 210.641023 249.016835 
L 210.641023 249.016835 
L 210.641023 249.016835 
L 217.328409 247.27335 
L 224.015795 245.526038 
L 224.015795 245.526038 
L 230.703182 243.772532 
L 237.390568 242.009463 
L 250.765341 238.443597 
L 250.765341 238.443597 
L 257.452727 236.637277 
L 270.8275 232.989273 
L 290.889659 229.951129 
L 290.889659 229.951129 
L 297.577045 229.536326 
L 310.951818 229.735549 
L 317.639205 229.295463 
L 331.013977 228.363307 
L 331.013977 228.363307 
L 331.013977 228.363307 
L 344.38875 226.403053 
L 351.076136 225.938464 
L 357.763523 224.53177 
L 384.513068 224.080253 
L 391.200455 224.948222 
L 397.887841 225.727761 
L 404.575227 226.119451 
L 417.95 227.165651 
L 424.637386 227.808822 
L 424.637386 227.808822 
L 424.637386 227.808822 
L 431.324773 228.550795 
L 431.324773 228.550795 
L 438.012159 229.580818 
L 444.699545 230.333609 
L 444.699545 230.333609 
L 444.699545 230.333609 
L 444.699545 230.333609 
L 444.699545 230.333609 
L 451.386932 230.493793 
L 451.386932 230.493793 
L 451.386932 230.493793 
L 458.074318 230.545339 
L 458.074318 230.545339 
L 464.761705 230.57498 
L 464.761705 230.57498 
L 471.449091 230.616734 
L 484.823864 230.759813 
L 484.823864 230.759813 
L 491.51125 230.853342 
L 498.198636 230.952714 
L 518.260795 231.218269 
L 518.260795 231.218269 
L 524.948182 231.27908 
L 531.635568 231.321699 
L 531.635568 231.321699 
L 531.635568 231.321699 
L 531.635568 231.321699 
L 531.635568 231.321699 
L 538.322955 231.344932 
L 545.010341 231.348765 
L 551.697727 231.333375 
L 551.697727 231.333375 
L 551.697727 231.333375 
L 558.385114 231.298927 
L 565.0725 231.245703 
L 571.759886 231.173461 
L 585.134659 230.972306 
L 585.134659 230.972306 
L 598.509432 230.703401 
L 598.509432 230.703401 
L 605.196818 230.550235 
L 605.196818 230.550235 
L 605.196818 230.550235 
L 611.884205 230.389795 
L 611.884205 230.389795 
L 611.884205 230.389795 
" clip-path="url(#pb1d8c5ad47)" style="fill: none; stroke: #8c564b; stroke-width: 2.25; stroke-linecap: square"/>
   </g>
   <g id="line2d_21">
    <path d="M 76.893295 231.4335 
L 96.955455 232.274596 
L 103.642841 232.528119 
L 110.330227 232.770175 
L 110.330227 232.770175 
L 110.330227 232.770175 
L 117.017614 233.002775 
L 123.705 233.226361 
L 123.705 233.226361 
L 130.392386 233.44076 
L 137.079773 233.644443 
L 150.454545 234.012424 
L 157.141932 234.174228 
L 157.141932 234.174228 
L 163.829318 234.31987 
L 163.829318 234.31987 
L 170.516705 234.448981 
L 170.516705 234.448981 
L 177.204091 234.562338 
L 183.891477 234.661709 
L 183.891477 234.661709 
L 190.578864 234.748877 
L 190.578864 234.748877 
L 190.578864 234.748877 
L 197.26625 234.825975 
L 210.641023 234.949932 
L 217.328409 234.992691 
L 224.015795 235.018475 
L 230.703182 235.021719 
L 244.077955 234.885795 
L 257.452727 234.942134 
L 257.452727 234.942134 
L 264.140114 234.830324 
L 264.140114 234.830324 
L 270.8275 234.863157 
L 270.8275 234.863157 
L 270.8275 234.863157 
L 290.889659 234.960125 
L 304.264432 235.160194 
L 317.639205 235.111296 
L 317.639205 235.111296 
L 324.326591 234.647985 
L 331.013977 234.686621 
L 331.013977 234.686621 
L 331.013977 234.686621 
L 331.013977 234.686621 
L 331.013977 234.686621 
L 337.701364 234.87617 
L 351.076136 235.979889 
L 351.076136 235.979889 
L 357.763523 236.563767 
L 364.450909 237.275543 
L 364.450909 237.275543 
L 364.450909 237.275543 
L 364.450909 237.275543 
L 371.138295 238.087909 
L 377.825682 238.78958 
L 377.825682 238.78958 
L 384.513068 239.938934 
L 384.513068 239.938934 
L 391.200455 240.814153 
L 391.200455 240.814153 
L 397.887841 241.79187 
L 397.887841 241.79187 
L 397.887841 241.79187 
L 404.575227 242.94376 
L 411.262614 244.120657 
L 411.262614 244.120657 
L 424.637386 246.067239 
L 431.324773 246.569854 
L 438.012159 247.338125 
L 438.012159 247.338125 
L 458.074318 248.566143 
L 458.074318 248.566143 
L 464.761705 249.001941 
L 478.136477 249.921247 
L 491.51125 250.883909 
L 491.51125 250.883909 
L 491.51125 250.883909 
L 498.198636 251.372835 
L 504.886023 251.863798 
L 504.886023 251.863798 
L 504.886023 251.863798 
L 518.260795 252.845009 
L 524.948182 253.330061 
L 524.948182 253.330061 
L 531.635568 253.807889 
L 538.322955 254.275239 
L 545.010341 254.729289 
L 545.010341 254.729289 
L 545.010341 254.729289 
L 558.385114 255.589872 
L 558.385114 255.589872 
L 558.385114 255.589872 
L 558.385114 255.589872 
L 565.0725 255.992871 
L 565.0725 255.992871 
L 585.134659 257.094923 
L 605.196818 258.064346 
L 605.196818 258.064346 
" clip-path="url(#pb1d8c5ad47)" style="fill: none; stroke: #e377c2; stroke-width: 2.25; stroke-linecap: square"/>
   </g>
   <g id="line2d_22">
    <path d="M 96.955455 263.870503 
L 103.642841 263.681605 
L 117.017614 263.346524 
L 117.017614 263.346524 
L 130.392386 263.05353 
L 137.079773 262.921717 
L 170.516705 262.39748 
L 177.204091 262.322608 
L 190.578864 262.215326 
L 190.578864 262.215326 
L 190.578864 262.215326 
L 197.26625 262.187744 
L 197.26625 262.187744 
L 197.26625 262.187744 
L 217.328409 262.246346 
L 224.015795 262.331745 
L 224.015795 262.331745 
L 230.703182 262.464719 
L 230.703182 262.464719 
L 237.390568 262.659715 
L 237.390568 262.659715 
L 244.077955 262.937454 
L 250.765341 263.32741 
L 250.765341 263.32741 
L 257.452727 263.86032 
L 257.452727 263.86032 
L 257.452727 263.86032 
L 257.452727 263.86032 
L 264.140114 264.54392 
L 264.140114 264.54392 
L 264.140114 264.54392 
L 277.514886 266.502685 
L 277.514886 266.502685 
L 277.514886 266.502685 
L 284.202273 267.579279 
L 297.577045 269.952788 
L 297.577045 269.952788 
L 297.577045 269.952788 
L 297.577045 269.952788 
L 304.264432 271.265027 
L 304.264432 271.265027 
L 304.264432 271.265027 
L 310.951818 272.435886 
L 310.951818 272.435886 
L 310.951818 272.435886 
L 310.951818 272.435886 
L 317.639205 273.748254 
L 317.639205 273.748254 
L 324.326591 275.268558 
L 331.013977 277.028289 
L 331.013977 277.028289 
L 337.701364 278.971617 
L 351.076136 282.402004 
L 351.076136 282.402004 
L 351.076136 282.402004 
L 364.450909 286.617367 
L 384.513068 289.911726 
L 397.887841 290.739861 
L 397.887841 290.739861 
L 404.575227 289.610463 
L 417.95 289.117169 
L 417.95 289.117169 
L 424.637386 288.450384 
L 424.637386 288.450384 
L 424.637386 288.450384 
L 438.012159 289.816984 
L 444.699545 288.94346 
L 458.074318 287.569604 
L 471.449091 286.661638 
L 471.449091 286.661638 
L 478.136477 286.314316 
L 478.136477 286.314316 
L 478.136477 286.314316 
L 478.136477 286.314316 
L 484.823864 286.006003 
L 484.823864 286.006003 
L 498.198636 285.434644 
L 498.198636 285.434644 
L 498.198636 285.434644 
L 504.886023 285.147848 
L 504.886023 285.147848 
L 511.573409 284.852748 
L 511.573409 284.852748 
L 518.260795 284.547356 
L 518.260795 284.547356 
L 518.260795 284.547356 
L 518.260795 284.547356 
L 531.635568 283.908492 
L 531.635568 283.908492 
L 531.635568 283.908492 
L 531.635568 283.908492 
L 531.635568 283.908492 
L 531.635568 283.908492 
L 558.385114 282.600156 
L 571.759886 281.977324 
L 571.759886 281.977324 
L 585.134659 281.419372 
L 585.134659 281.419372 
L 591.822045 281.17928 
L 591.822045 281.17928 
" clip-path="url(#pb1d8c5ad47)" style="fill: none; stroke: #7f7f7f; stroke-width: 2.25; stroke-linecap: square"/>
   </g>
   <g id="line2d_23">
    <path d="M 76.893295 349.956307 
L 83.580682 348.785817 
L 103.642841 345.367507 
L 103.642841 345.367507 
L 110.330227 344.265706 
L 117.017614 343.185567 
L 123.705 342.127949 
L 123.705 342.127949 
L 130.392386 341.093022 
L 130.392386 341.093022 
L 130.392386 341.093022 
L 137.079773 340.080785 
L 143.767159 339.09102 
L 150.454545 338.122862 
L 163.829318 336.24515 
L 163.829318 336.24515 
L 170.516705 335.332527 
L 177.204091 334.435569 
L 183.891477 333.552853 
L 183.891477 333.552853 
L 190.578864 332.682575 
L 210.641023 330.131127 
L 217.328409 329.29363 
L 224.015795 328.458268 
L 224.015795 328.458268 
L 230.703182 327.621869 
L 237.390568 326.781294 
L 237.390568 326.781294 
L 244.077955 325.934291 
L 244.077955 325.934291 
L 244.077955 325.934291 
L 250.765341 325.085681 
L 250.765341 325.085681 
L 257.452727 324.261526 
L 277.514886 322.848127 
L 284.202273 322.695129 
L 290.889659 322.69582 
L 290.889659 322.69582 
L 304.264432 322.509422 
L 304.264432 322.509422 
L 304.264432 322.509422 
L 317.639205 322.636969 
L 324.326591 322.784441 
L 344.38875 322.884286 
L 357.763523 323.150519 
L 364.450909 323.298598 
L 364.450909 323.298598 
L 371.138295 323.657315 
L 377.825682 323.81571 
L 384.513068 323.926018 
L 391.200455 323.956941 
L 391.200455 323.956941 
L 391.200455 323.956941 
L 397.887841 323.883232 
L 404.575227 323.578647 
L 411.262614 323.343596 
L 411.262614 323.343596 
L 417.95 322.956925 
L 417.95 322.956925 
L 424.637386 322.622338 
L 431.324773 322.31797 
L 431.324773 322.31797 
L 438.012159 321.928719 
L 438.012159 321.928719 
L 444.699545 321.538059 
L 444.699545 321.538059 
L 444.699545 321.538059 
L 444.699545 321.538059 
L 444.699545 321.538059 
L 451.386932 321.118059 
L 451.386932 321.118059 
L 458.074318 320.711265 
L 458.074318 320.711265 
L 458.074318 320.711265 
L 464.761705 320.291068 
L 478.136477 319.399411 
L 478.136477 319.399411 
L 478.136477 319.399411 
L 484.823864 318.932678 
L 484.823864 318.932678 
L 491.51125 318.455933 
L 518.260795 316.488153 
L 524.948182 315.987537 
L 524.948182 315.987537 
L 531.635568 315.485716 
L 538.322955 314.983721 
L 538.322955 314.983721 
L 545.010341 314.48232 
L 551.697727 313.981773 
L 558.385114 313.482093 
L 558.385114 313.482093 
L 578.447273 311.989893 
L 591.822045 311.001347 
L 598.509432 310.508649 
L 598.509432 310.508649 
L 605.196818 310.016225 
L 605.196818 310.016225 
L 605.196818 310.016225 
L 605.196818 310.016225 
L 611.884205 309.522624 
" clip-path="url(#pb1d8c5ad47)" style="fill: none; stroke: #bcbd22; stroke-width: 2.25; stroke-linecap: square"/>
   </g>
   <g id="patch_3">
    <path d="M 50.14375 365.558125 
L 50.14375 22.318125 
" style="fill: none; stroke: #000000; stroke-width: 0.8; stroke-linejoin: miter; stroke-linecap: square"/>
   </g>
   <g id="patch_4">
    <path d="M 50.14375 365.558125 
L 638.63375 365.558125 
" style="fill: none; stroke: #000000; stroke-width: 0.8; stroke-linejoin: miter; stroke-linecap: square"/>
   </g>
   <g id="text_17">
    <!-- Relative frequency of all inner life verbs over time per language (lowess) -->
    <g transform="translate(125.408437 16.318125)scale(0.12 -0.12)">
     <defs>
      <path id="DejaVuSans-62" d="M 3116 1747 
Q 3116 2381 2855 2742 
Q 2594 3103 2138 3103 
Q 1681 3103 1420 2742 
Q 1159 2381 1159 1747 
Q 1159 1113 1420 752 
Q 1681 391 2138 391 
Q 2594 391 2855 752 
Q 3116 1113 3116 1747 
z
M 1159 2969 
Q 1341 3281 1617 3432 
Q 1894 3584 2278 3584 
Q 2916 3584 3314 3078 
Q 3713 2572 3713 1747 
Q 3713 922 3314 415 
Q 2916 -91 2278 -91 
Q 1894 -91 1617 61 
Q 1341 213 1159 525 
L 1159 0 
L 581 0 
L 581 4863 
L 1159 4863 
L 1159 2969 
z
" transform="scale(0.015625)"/>
      <path id="DejaVuSans-73" d="M 2834 3397 
L 2834 2853 
Q 2591 2978 2328 3040 
Q 2066 3103 1784 3103 
Q 1356 3103 1142 2972 
Q 928 2841 928 2578 
Q 928 2378 1081 2264 
Q 1234 2150 1697 2047 
L 1894 2003 
Q 2506 1872 2764 1633 
Q 3022 1394 3022 966 
Q 3022 478 2636 193 
Q 2250 -91 1575 -91 
Q 1294 -91 989 -36 
Q 684 19 347 128 
L 347 722 
Q 666 556 975 473 
Q 1284 391 1588 391 
Q 1994 391 2212 530 
Q 2431 669 2431 922 
Q 2431 1156 2273 1281 
Q 2116 1406 1581 1522 
L 1381 1569 
Q 847 1681 609 1914 
Q 372 2147 372 2553 
Q 372 3047 722 3315 
Q 1072 3584 1716 3584 
Q 2034 3584 2315 3537 
Q 2597 3491 2834 3397 
z
" transform="scale(0.015625)"/>
      <path id="DejaVuSans-67" d="M 2906 1791 
Q 2906 2416 2648 2759 
Q 2391 3103 1925 3103 
Q 1463 3103 1205 2759 
Q 947 2416 947 1791 
Q 947 1169 1205 825 
Q 1463 481 1925 481 
Q 2391 481 2648 825 
Q 2906 1169 2906 1791 
z
M 3481 434 
Q 3481 -459 3084 -895 
Q 2688 -1331 1869 -1331 
Q 1566 -1331 1297 -1286 
Q 1028 -1241 775 -1147 
L 775 -588 
Q 1028 -725 1275 -790 
Q 1522 -856 1778 -856 
Q 2344 -856 2625 -561 
Q 2906 -266 2906 331 
L 2906 616 
Q 2728 306 2450 153 
Q 2172 0 1784 0 
Q 1141 0 747 490 
Q 353 981 353 1791 
Q 353 2603 747 3093 
Q 1141 3584 1784 3584 
Q 2172 3584 2450 3431 
Q 2728 3278 2906 2969 
L 2906 3500 
L 3481 3500 
L 3481 434 
z
" transform="scale(0.015625)"/>
      <path id="DejaVuSans-28" d="M 1984 4856 
Q 1566 4138 1362 3434 
Q 1159 2731 1159 2009 
Q 1159 1288 1364 580 
Q 1569 -128 1984 -844 
L 1484 -844 
Q 1016 -109 783 600 
Q 550 1309 550 2009 
Q 550 2706 781 3412 
Q 1013 4119 1484 4856 
L 1984 4856 
z
" transform="scale(0.015625)"/>
      <path id="DejaVuSans-77" d="M 269 3500 
L 844 3500 
L 1563 769 
L 2278 3500 
L 2956 3500 
L 3675 769 
L 4391 3500 
L 4966 3500 
L 4050 0 
L 3372 0 
L 2619 2869 
L 1863 0 
L 1184 0 
L 269 3500 
z
" transform="scale(0.015625)"/>
      <path id="DejaVuSans-29" d="M 513 4856 
L 1013 4856 
Q 1481 4119 1714 3412 
Q 1947 2706 1947 2009 
Q 1947 1309 1714 600 
Q 1481 -109 1013 -844 
L 513 -844 
Q 928 -128 1133 580 
Q 1338 1288 1338 2009 
Q 1338 2731 1133 3434 
Q 928 4138 513 4856 
z
" transform="scale(0.015625)"/>
     </defs>
     <use xlink:href="#DejaVuSans-52"/>
     <use xlink:href="#DejaVuSans-65" x="64.982422"/>
     <use xlink:href="#DejaVuSans-6c" x="126.505859"/>
     <use xlink:href="#DejaVuSans-61" x="154.289062"/>
     <use xlink:href="#DejaVuSans-74" x="215.568359"/>
     <use xlink:href="#DejaVuSans-69" x="254.777344"/>
     <use xlink:href="#DejaVuSans-76" x="282.560547"/>
     <use xlink:href="#DejaVuSans-65" x="341.740234"/>
     <use xlink:href="#DejaVuSans-20" x="403.263672"/>
     <use xlink:href="#DejaVuSans-66" x="435.050781"/>
     <use xlink:href="#DejaVuSans-72" x="470.255859"/>
     <use xlink:href="#DejaVuSans-65" x="509.119141"/>
     <use xlink:href="#DejaVuSans-71" x="570.642578"/>
     <use xlink:href="#DejaVuSans-75" x="634.119141"/>
     <use xlink:href="#DejaVuSans-65" x="697.498047"/>
     <use xlink:href="#DejaVuSans-6e" x="759.021484"/>
     <use xlink:href="#DejaVuSans-63" x="822.400391"/>
     <use xlink:href="#DejaVuSans-79" x="877.380859"/>
     <use xlink:href="#DejaVuSans-20" x="936.560547"/>
     <use xlink:href="#DejaVuSans-6f" x="968.347656"/>
     <use xlink:href="#DejaVuSans-66" x="1029.529297"/>
     <use xlink:href="#DejaVuSans-20" x="1064.734375"/>
     <use xlink:href="#DejaVuSans-61" x="1096.521484"/>
     <use xlink:href="#DejaVuSans-6c" x="1157.800781"/>
     <use xlink:href="#DejaVuSans-6c" x="1185.583984"/>
     <use xlink:href="#DejaVuSans-20" x="1213.367188"/>
     <use xlink:href="#DejaVuSans-69" x="1245.154297"/>
     <use xlink:href="#DejaVuSans-6e" x="1272.9375"/>
     <use xlink:href="#DejaVuSans-6e" x="1336.316406"/>
     <use xlink:href="#DejaVuSans-65" x="1399.695312"/>
     <use xlink:href="#DejaVuSans-72" x="1461.21875"/>
     <use xlink:href="#DejaVuSans-20" x="1502.332031"/>
     <use xlink:href="#DejaVuSans-6c" x="1534.119141"/>
     <use xlink:href="#DejaVuSans-69" x="1561.902344"/>
     <use xlink:href="#DejaVuSans-66" x="1589.685547"/>
     <use xlink:href="#DejaVuSans-65" x="1624.890625"/>
     <use xlink:href="#DejaVuSans-20" x="1686.414062"/>
     <use xlink:href="#DejaVuSans-76" x="1718.201172"/>
     <use xlink:href="#DejaVuSans-65" x="1777.380859"/>
     <use xlink:href="#DejaVuSans-72" x="1838.904297"/>
     <use xlink:href="#DejaVuSans-62" x="1880.017578"/>
     <use xlink:href="#DejaVuSans-73" x="1943.494141"/>
     <use xlink:href="#DejaVuSans-20" x="1995.59375"/>
     <use xlink:href="#DejaVuSans-6f" x="2027.380859"/>
     <use xlink:href="#DejaVuSans-76" x="2088.5625"/>
     <use xlink:href="#DejaVuSans-65" x="2147.742188"/>
     <use xlink:href="#DejaVuSans-72" x="2209.265625"/>
     <use xlink:href="#DejaVuSans-20" x="2250.378906"/>
     <use xlink:href="#DejaVuSans-74" x="2282.166016"/>
     <use xlink:href="#DejaVuSans-69" x="2321.375"/>
     <use xlink:href="#DejaVuSans-6d" x="2349.158203"/>
     <use xlink:href="#DejaVuSans-65" x="2446.570312"/>
     <use xlink:href="#DejaVuSans-20" x="2508.09375"/>
     <use xlink:href="#DejaVuSans-70" x="2539.880859"/>
     <use xlink:href="#DejaVuSans-65" x="2603.357422"/>
     <use xlink:href="#DejaVuSans-72" x="2664.880859"/>
     <use xlink:href="#DejaVuSans-20" x="2705.994141"/>
     <use xlink:href="#DejaVuSans-6c" x="2737.78125"/>
     <use xlink:href="#DejaVuSans-61" x="2765.564453"/>
     <use xlink:href="#DejaVuSans-6e" x="2826.84375"/>
     <use xlink:href="#DejaVuSans-67" x="2890.222656"/>
     <use xlink:href="#DejaVuSans-75" x="2953.699219"/>
     <use xlink:href="#DejaVuSans-61" x="3017.078125"/>
     <use xlink:href="#DejaVuSans-67" x="3078.357422"/>
     <use xlink:href="#DejaVuSans-65" x="3141.833984"/>
     <use xlink:href="#DejaVuSans-20" x="3203.357422"/>
     <use xlink:href="#DejaVuSans-28" x="3235.144531"/>
     <use xlink:href="#DejaVuSans-6c" x="3274.158203"/>
     <use xlink:href="#DejaVuSans-6f" x="3301.941406"/>
     <use xlink:href="#DejaVuSans-77" x="3363.123047"/>
     <use xlink:href="#DejaVuSans-65" x="3444.910156"/>
     <use xlink:href="#DejaVuSans-73" x="3506.433594"/>
     <use xlink:href="#DejaVuSans-73" x="3558.533203"/>
     <use xlink:href="#DejaVuSans-29" x="3610.632812"/>
    </g>
   </g>
   <g id="legend_1">
    <g id="patch_5">
     <path d="M 640.63375 262.586125 
L 699.19625 262.586125 
Q 701.19625 262.586125 701.19625 260.586125 
L 701.19625 114.804875 
Q 701.19625 112.804875 699.19625 112.804875 
L 640.63375 112.804875 
Q 638.63375 112.804875 638.63375 114.804875 
L 638.63375 260.586125 
Q 638.63375 262.586125 640.63375 262.586125 
z
" style="fill: #ffffff; opacity: 0.8; stroke: #cccccc; stroke-linejoin: miter"/>
    </g>
    <g id="text_18">
     <!-- Languages -->
     <g transform="translate(642.63375 124.403312)scale(0.1 -0.1)">
      <defs>
       <path id="DejaVuSans-4c" d="M 628 4666 
L 1259 4666 
L 1259 531 
L 3531 531 
L 3531 0 
L 628 0 
L 628 4666 
z
" transform="scale(0.015625)"/>
      </defs>
      <use xlink:href="#DejaVuSans-4c"/>
      <use xlink:href="#DejaVuSans-61" x="55.712891"/>
      <use xlink:href="#DejaVuSans-6e" x="116.992188"/>
      <use xlink:href="#DejaVuSans-67" x="180.371094"/>
      <use xlink:href="#DejaVuSans-75" x="243.847656"/>
      <use xlink:href="#DejaVuSans-61" x="307.226562"/>
      <use xlink:href="#DejaVuSans-67" x="368.505859"/>
      <use xlink:href="#DejaVuSans-65" x="431.982422"/>
      <use xlink:href="#DejaVuSans-73" x="493.505859"/>
     </g>
    </g>
    <g id="line2d_24">
     <path d="M 646.042344 135.581437 
L 656.042344 135.581437 
L 666.042344 135.581437 
" style="fill: none; stroke: #1f77b4; stroke-width: 2.25; stroke-linecap: square"/>
    </g>
    <g id="text_19">
     <!-- rom -->
     <g transform="translate(674.042344 139.081437)scale(0.1 -0.1)">
      <use xlink:href="#DejaVuSans-72"/>
      <use xlink:href="#DejaVuSans-6f" x="38.863281"/>
      <use xlink:href="#DejaVuSans-6d" x="100.044922"/>
     </g>
    </g>
    <g id="line2d_25">
     <path d="M 646.042344 150.259562 
L 656.042344 150.259562 
L 666.042344 150.259562 
" style="fill: none; stroke: #ff7f0e; stroke-width: 2.25; stroke-linecap: square"/>
    </g>
    <g id="text_20">
     <!-- nor -->
     <g transform="translate(674.042344 153.759562)scale(0.1 -0.1)">
      <use xlink:href="#DejaVuSans-6e"/>
      <use xlink:href="#DejaVuSans-6f" x="63.378906"/>
      <use xlink:href="#DejaVuSans-72" x="124.560547"/>
     </g>
    </g>
    <g id="line2d_26">
     <path d="M 646.042344 164.937687 
L 656.042344 164.937687 
L 666.042344 164.937687 
" style="fill: none; stroke: #2ca02c; stroke-width: 2.25; stroke-linecap: square"/>
    </g>
    <g id="text_21">
     <!-- deu -->
     <g transform="translate(674.042344 168.437687)scale(0.1 -0.1)">
      <use xlink:href="#DejaVuSans-64"/>
      <use xlink:href="#DejaVuSans-65" x="63.476562"/>
      <use xlink:href="#DejaVuSans-75" x="125"/>
     </g>
    </g>
    <g id="line2d_27">
     <path d="M 646.042344 179.615812 
L 656.042344 179.615812 
L 666.042344 179.615812 
" style="fill: none; stroke: #d62728; stroke-width: 2.25; stroke-linecap: square"/>
    </g>
    <g id="text_22">
     <!-- slv -->
     <g transform="translate(674.042344 183.115812)scale(0.1 -0.1)">
      <use xlink:href="#DejaVuSans-73"/>
      <use xlink:href="#DejaVuSans-6c" x="52.099609"/>
      <use xlink:href="#DejaVuSans-76" x="79.882812"/>
     </g>
    </g>
    <g id="line2d_28">
     <path d="M 646.042344 194.293937 
L 656.042344 194.293937 
L 666.042344 194.293937 
" style="fill: none; stroke: #9467bd; stroke-width: 2.25; stroke-linecap: square"/>
    </g>
    <g id="text_23">
     <!-- spa -->
     <g transform="translate(674.042344 197.793937)scale(0.1 -0.1)">
      <use xlink:href="#DejaVuSans-73"/>
      <use xlink:href="#DejaVuSans-70" x="52.099609"/>
      <use xlink:href="#DejaVuSans-61" x="115.576172"/>
     </g>
    </g>
    <g id="line2d_29">
     <path d="M 646.042344 208.972062 
L 656.042344 208.972062 
L 666.042344 208.972062 
" style="fill: none; stroke: #8c564b; stroke-width: 2.25; stroke-linecap: square"/>
    </g>
    <g id="text_24">
     <!-- hun -->
     <g transform="translate(674.042344 212.472062)scale(0.1 -0.1)">
      <defs>
       <path id="DejaVuSans-68" d="M 3513 2113 
L 3513 0 
L 2938 0 
L 2938 2094 
Q 2938 2591 2744 2837 
Q 2550 3084 2163 3084 
Q 1697 3084 1428 2787 
Q 1159 2491 1159 1978 
L 1159 0 
L 581 0 
L 581 4863 
L 1159 4863 
L 1159 2956 
Q 1366 3272 1645 3428 
Q 1925 3584 2291 3584 
Q 2894 3584 3203 3211 
Q 3513 2838 3513 2113 
z
" transform="scale(0.015625)"/>
      </defs>
      <use xlink:href="#DejaVuSans-68"/>
      <use xlink:href="#DejaVuSans-75" x="63.378906"/>
      <use xlink:href="#DejaVuSans-6e" x="126.757812"/>
     </g>
    </g>
    <g id="line2d_30">
     <path d="M 646.042344 223.650187 
L 656.042344 223.650187 
L 666.042344 223.650187 
" style="fill: none; stroke: #e377c2; stroke-width: 2.25; stroke-linecap: square"/>
    </g>
    <g id="text_25">
     <!-- fra -->
     <g transform="translate(674.042344 227.150187)scale(0.1 -0.1)">
      <use xlink:href="#DejaVuSans-66"/>
      <use xlink:href="#DejaVuSans-72" x="35.205078"/>
      <use xlink:href="#DejaVuSans-61" x="76.318359"/>
     </g>
    </g>
    <g id="line2d_31">
     <path d="M 646.042344 238.328312 
L 656.042344 238.328312 
L 666.042344 238.328312 
" style="fill: none; stroke: #7f7f7f; stroke-width: 2.25; stroke-linecap: square"/>
    </g>
    <g id="text_26">
     <!-- por -->
     <g transform="translate(674.042344 241.828312)scale(0.1 -0.1)">
      <use xlink:href="#DejaVuSans-70"/>
      <use xlink:href="#DejaVuSans-6f" x="63.476562"/>
      <use xlink:href="#DejaVuSans-72" x="124.658203"/>
     </g>
    </g>
    <g id="line2d_32">
     <path d="M 646.042344 253.006437 
L 656.042344 253.006437 
L 666.042344 253.006437 
" style="fill: none; stroke: #bcbd22; stroke-width: 2.25; stroke-linecap: square"/>
    </g>
    <g id="text_27">
     <!-- eng -->
     <g transform="translate(674.042344 256.506437)scale(0.1 -0.1)">
      <use xlink:href="#DejaVuSans-65"/>
      <use xlink:href="#DejaVuSans-6e" x="61.523438"/>
      <use xlink:href="#DejaVuSans-67" x="124.902344"/>
     </g>
    </g>
   </g>
  </g>
 </g>
 <defs>
  <clipPath id="pb1d8c5ad47">
   <rect x="50.14375" y="22.318125" width="588.49" height="343.24"/>
  </clipPath>
 </defs>
</svg>
