<?xml version="1.0" encoding="utf-8" standalone="no"?>
<!DOCTYPE svg PUBLIC "-//W3C//DTD SVG 1.1//EN"
  "http://www.w3.org/Graphics/SVG/1.1/DTD/svg11.dtd">
<svg xmlns:xlink="http://www.w3.org/1999/xlink" width="708.39625pt" height="403.114375pt" viewBox="0 0 708.39625 403.114375" xmlns="http://www.w3.org/2000/svg" version="1.1">
 <metadata>
  <rdf:RDF xmlns:dc="http://purl.org/dc/elements/1.1/" xmlns:cc="http://creativecommons.org/ns#" xmlns:rdf="http://www.w3.org/1999/02/22-rdf-syntax-ns#">
   <cc:Work>
    <dc:type rdf:resource="http://purl.org/dc/dcmitype/StillImage"/>
    <dc:date>2023-06-27T08:57:53.546634</dc:date>
    <dc:format>image/svg+xml</dc:format>
    <dc:creator>
     <cc:Agent>
      <dc:title>Matplotlib v3.5.1, https://matplotlib.org/</dc:title>
     </cc:Agent>
    </dc:creator>
   </cc:Work>
  </rdf:RDF>
 </metadata>
 <defs>
  <style type="text/css">*{stroke-linejoin: round; stroke-linecap: butt}</style>
 </defs>
 <g id="figure_1">
  <g id="patch_1">
   <path d="M 0 403.114375 
L 708.39625 403.114375 
L 708.39625 -0 
L 0 -0 
z
" style="fill: #ffffff"/>
  </g>
  <g id="axes_1">
   <g id="patch_2">
    <path d="M 50.14375 365.558125 
L 638.63375 365.558125 
L 638.63375 22.318125 
L 50.14375 22.318125 
z
" style="fill: #ffffff"/>
   </g>
   <g id="matplotlib.axis_1">
    <g id="xtick_1">
     <g id="line2d_1">
      <defs>
       <path id="ma1c54527cd" d="M 0 0 
L 0 3.5 
" style="stroke: #000000; stroke-width: 0.8"/>
      </defs>
      <g>
       <use xlink:href="#ma1c54527cd" x="76.893295" y="365.558125" style="stroke: #000000; stroke-width: 0.8"/>
      </g>
     </g>
     <g id="text_1">
      <!-- 1840 -->
      <g transform="translate(64.168295 380.156562)scale(0.1 -0.1)">
       <defs>
        <path id="DejaVuSans-31" d="M 794 531 
L 1825 531 
L 1825 4091 
L 703 3866 
L 703 4441 
L 1819 4666 
L 2450 4666 
L 2450 531 
L 3481 531 
L 3481 0 
L 794 0 
L 794 531 
z
" transform="scale(0.015625)"/>
        <path id="DejaVuSans-38" d="M 2034 2216 
Q 1584 2216 1326 1975 
Q 1069 1734 1069 1313 
Q 1069 891 1326 650 
Q 1584 409 2034 409 
Q 2484 409 2743 651 
Q 3003 894 3003 1313 
Q 3003 1734 2745 1975 
Q 2488 2216 2034 2216 
z
M 1403 2484 
Q 997 2584 770 2862 
Q 544 3141 544 3541 
Q 544 4100 942 4425 
Q 1341 4750 2034 4750 
Q 2731 4750 3128 4425 
Q 3525 4100 3525 3541 
Q 3525 3141 3298 2862 
Q 3072 2584 2669 2484 
Q 3125 2378 3379 2068 
Q 3634 1759 3634 1313 
Q 3634 634 3220 271 
Q 2806 -91 2034 -91 
Q 1263 -91 848 271 
Q 434 634 434 1313 
Q 434 1759 690 2068 
Q 947 2378 1403 2484 
z
M 1172 3481 
Q 1172 3119 1398 2916 
Q 1625 2713 2034 2713 
Q 2441 2713 2670 2916 
Q 2900 3119 2900 3481 
Q 2900 3844 2670 4047 
Q 2441 4250 2034 4250 
Q 1625 4250 1398 4047 
Q 1172 3844 1172 3481 
z
" transform="scale(0.015625)"/>
        <path id="DejaVuSans-34" d="M 2419 4116 
L 825 1625 
L 2419 1625 
L 2419 4116 
z
M 2253 4666 
L 3047 4666 
L 3047 1625 
L 3713 1625 
L 3713 1100 
L 3047 1100 
L 3047 0 
L 2419 0 
L 2419 1100 
L 313 1100 
L 313 1709 
L 2253 4666 
z
" transform="scale(0.015625)"/>
        <path id="DejaVuSans-30" d="M 2034 4250 
Q 1547 4250 1301 3770 
Q 1056 3291 1056 2328 
Q 1056 1369 1301 889 
Q 1547 409 2034 409 
Q 2525 409 2770 889 
Q 3016 1369 3016 2328 
Q 3016 3291 2770 3770 
Q 2525 4250 2034 4250 
z
M 2034 4750 
Q 2819 4750 3233 4129 
Q 3647 3509 3647 2328 
Q 3647 1150 3233 529 
Q 2819 -91 2034 -91 
Q 1250 -91 836 529 
Q 422 1150 422 2328 
Q 422 3509 836 4129 
Q 1250 4750 2034 4750 
z
" transform="scale(0.015625)"/>
       </defs>
       <use xlink:href="#DejaVuSans-31"/>
       <use xlink:href="#DejaVuSans-38" x="63.623047"/>
       <use xlink:href="#DejaVuSans-34" x="127.246094"/>
       <use xlink:href="#DejaVuSans-30" x="190.869141"/>
      </g>
     </g>
    </g>
    <g id="xtick_2">
     <g id="line2d_2">
      <g>
       <use xlink:href="#ma1c54527cd" x="143.767159" y="365.558125" style="stroke: #000000; stroke-width: 0.8"/>
      </g>
     </g>
     <g id="text_2">
      <!-- 1850 -->
      <g transform="translate(131.042159 380.156562)scale(0.1 -0.1)">
       <defs>
        <path id="DejaVuSans-35" d="M 691 4666 
L 3169 4666 
L 3169 4134 
L 1269 4134 
L 1269 2991 
Q 1406 3038 1543 3061 
Q 1681 3084 1819 3084 
Q 2600 3084 3056 2656 
Q 3513 2228 3513 1497 
Q 3513 744 3044 326 
Q 2575 -91 1722 -91 
Q 1428 -91 1123 -41 
Q 819 9 494 109 
L 494 744 
Q 775 591 1075 516 
Q 1375 441 1709 441 
Q 2250 441 2565 725 
Q 2881 1009 2881 1497 
Q 2881 1984 2565 2268 
Q 2250 2553 1709 2553 
Q 1456 2553 1204 2497 
Q 953 2441 691 2322 
L 691 4666 
z
" transform="scale(0.015625)"/>
       </defs>
       <use xlink:href="#DejaVuSans-31"/>
       <use xlink:href="#DejaVuSans-38" x="63.623047"/>
       <use xlink:href="#DejaVuSans-35" x="127.246094"/>
       <use xlink:href="#DejaVuSans-30" x="190.869141"/>
      </g>
     </g>
    </g>
    <g id="xtick_3">
     <g id="line2d_3">
      <g>
       <use xlink:href="#ma1c54527cd" x="210.641023" y="365.558125" style="stroke: #000000; stroke-width: 0.8"/>
      </g>
     </g>
     <g id="text_3">
      <!-- 1860 -->
      <g transform="translate(197.916023 380.156562)scale(0.1 -0.1)">
       <defs>
        <path id="DejaVuSans-36" d="M 2113 2584 
Q 1688 2584 1439 2293 
Q 1191 2003 1191 1497 
Q 1191 994 1439 701 
Q 1688 409 2113 409 
Q 2538 409 2786 701 
Q 3034 994 3034 1497 
Q 3034 2003 2786 2293 
Q 2538 2584 2113 2584 
z
M 3366 4563 
L 3366 3988 
Q 3128 4100 2886 4159 
Q 2644 4219 2406 4219 
Q 1781 4219 1451 3797 
Q 1122 3375 1075 2522 
Q 1259 2794 1537 2939 
Q 1816 3084 2150 3084 
Q 2853 3084 3261 2657 
Q 3669 2231 3669 1497 
Q 3669 778 3244 343 
Q 2819 -91 2113 -91 
Q 1303 -91 875 529 
Q 447 1150 447 2328 
Q 447 3434 972 4092 
Q 1497 4750 2381 4750 
Q 2619 4750 2861 4703 
Q 3103 4656 3366 4563 
z
" transform="scale(0.015625)"/>
       </defs>
       <use xlink:href="#DejaVuSans-31"/>
       <use xlink:href="#DejaVuSans-38" x="63.623047"/>
       <use xlink:href="#DejaVuSans-36" x="127.246094"/>
       <use xlink:href="#DejaVuSans-30" x="190.869141"/>
      </g>
     </g>
    </g>
    <g id="xtick_4">
     <g id="line2d_4">
      <g>
       <use xlink:href="#ma1c54527cd" x="277.514886" y="365.558125" style="stroke: #000000; stroke-width: 0.8"/>
      </g>
     </g>
     <g id="text_4">
      <!-- 1870 -->
      <g transform="translate(264.789886 380.156562)scale(0.1 -0.1)">
       <defs>
        <path id="DejaVuSans-37" d="M 525 4666 
L 3525 4666 
L 3525 4397 
L 1831 0 
L 1172 0 
L 2766 4134 
L 525 4134 
L 525 4666 
z
" transform="scale(0.015625)"/>
       </defs>
       <use xlink:href="#DejaVuSans-31"/>
       <use xlink:href="#DejaVuSans-38" x="63.623047"/>
       <use xlink:href="#DejaVuSans-37" x="127.246094"/>
       <use xlink:href="#DejaVuSans-30" x="190.869141"/>
      </g>
     </g>
    </g>
    <g id="xtick_5">
     <g id="line2d_5">
      <g>
       <use xlink:href="#ma1c54527cd" x="344.38875" y="365.558125" style="stroke: #000000; stroke-width: 0.8"/>
      </g>
     </g>
     <g id="text_5">
      <!-- 1880 -->
      <g transform="translate(331.66375 380.156562)scale(0.1 -0.1)">
       <use xlink:href="#DejaVuSans-31"/>
       <use xlink:href="#DejaVuSans-38" x="63.623047"/>
       <use xlink:href="#DejaVuSans-38" x="127.246094"/>
       <use xlink:href="#DejaVuSans-30" x="190.869141"/>
      </g>
     </g>
    </g>
    <g id="xtick_6">
     <g id="line2d_6">
      <g>
       <use xlink:href="#ma1c54527cd" x="411.262614" y="365.558125" style="stroke: #000000; stroke-width: 0.8"/>
      </g>
     </g>
     <g id="text_6">
      <!-- 1890 -->
      <g transform="translate(398.537614 380.156562)scale(0.1 -0.1)">
       <defs>
        <path id="DejaVuSans-39" d="M 703 97 
L 703 672 
Q 941 559 1184 500 
Q 1428 441 1663 441 
Q 2288 441 2617 861 
Q 2947 1281 2994 2138 
Q 2813 1869 2534 1725 
Q 2256 1581 1919 1581 
Q 1219 1581 811 2004 
Q 403 2428 403 3163 
Q 403 3881 828 4315 
Q 1253 4750 1959 4750 
Q 2769 4750 3195 4129 
Q 3622 3509 3622 2328 
Q 3622 1225 3098 567 
Q 2575 -91 1691 -91 
Q 1453 -91 1209 -44 
Q 966 3 703 97 
z
M 1959 2075 
Q 2384 2075 2632 2365 
Q 2881 2656 2881 3163 
Q 2881 3666 2632 3958 
Q 2384 4250 1959 4250 
Q 1534 4250 1286 3958 
Q 1038 3666 1038 3163 
Q 1038 2656 1286 2365 
Q 1534 2075 1959 2075 
z
" transform="scale(0.015625)"/>
       </defs>
       <use xlink:href="#DejaVuSans-31"/>
       <use xlink:href="#DejaVuSans-38" x="63.623047"/>
       <use xlink:href="#DejaVuSans-39" x="127.246094"/>
       <use xlink:href="#DejaVuSans-30" x="190.869141"/>
      </g>
     </g>
    </g>
    <g id="xtick_7">
     <g id="line2d_7">
      <g>
       <use xlink:href="#ma1c54527cd" x="478.136477" y="365.558125" style="stroke: #000000; stroke-width: 0.8"/>
      </g>
     </g>
     <g id="text_7">
      <!-- 1900 -->
      <g transform="translate(465.411477 380.156562)scale(0.1 -0.1)">
       <use xlink:href="#DejaVuSans-31"/>
       <use xlink:href="#DejaVuSans-39" x="63.623047"/>
       <use xlink:href="#DejaVuSans-30" x="127.246094"/>
       <use xlink:href="#DejaVuSans-30" x="190.869141"/>
      </g>
     </g>
    </g>
    <g id="xtick_8">
     <g id="line2d_8">
      <g>
       <use xlink:href="#ma1c54527cd" x="545.010341" y="365.558125" style="stroke: #000000; stroke-width: 0.8"/>
      </g>
     </g>
     <g id="text_8">
      <!-- 1910 -->
      <g transform="translate(532.285341 380.156562)scale(0.1 -0.1)">
       <use xlink:href="#DejaVuSans-31"/>
       <use xlink:href="#DejaVuSans-39" x="63.623047"/>
       <use xlink:href="#DejaVuSans-31" x="127.246094"/>
       <use xlink:href="#DejaVuSans-30" x="190.869141"/>
      </g>
     </g>
    </g>
    <g id="xtick_9">
     <g id="line2d_9">
      <g>
       <use xlink:href="#ma1c54527cd" x="611.884205" y="365.558125" style="stroke: #000000; stroke-width: 0.8"/>
      </g>
     </g>
     <g id="text_9">
      <!-- 1920 -->
      <g transform="translate(599.159205 380.156562)scale(0.1 -0.1)">
       <defs>
        <path id="DejaVuSans-32" d="M 1228 531 
L 3431 531 
L 3431 0 
L 469 0 
L 469 531 
Q 828 903 1448 1529 
Q 2069 2156 2228 2338 
Q 2531 2678 2651 2914 
Q 2772 3150 2772 3378 
Q 2772 3750 2511 3984 
Q 2250 4219 1831 4219 
Q 1534 4219 1204 4116 
Q 875 4013 500 3803 
L 500 4441 
Q 881 4594 1212 4672 
Q 1544 4750 1819 4750 
Q 2544 4750 2975 4387 
Q 3406 4025 3406 3419 
Q 3406 3131 3298 2873 
Q 3191 2616 2906 2266 
Q 2828 2175 2409 1742 
Q 1991 1309 1228 531 
z
" transform="scale(0.015625)"/>
       </defs>
       <use xlink:href="#DejaVuSans-31"/>
       <use xlink:href="#DejaVuSans-39" x="63.623047"/>
       <use xlink:href="#DejaVuSans-32" x="127.246094"/>
       <use xlink:href="#DejaVuSans-30" x="190.869141"/>
      </g>
     </g>
    </g>
    <g id="text_10">
     <!-- Time period -->
     <g transform="translate(314.637187 393.834687)scale(0.1 -0.1)">
      <defs>
       <path id="DejaVuSans-54" d="M -19 4666 
L 3928 4666 
L 3928 4134 
L 2272 4134 
L 2272 0 
L 1638 0 
L 1638 4134 
L -19 4134 
L -19 4666 
z
" transform="scale(0.015625)"/>
       <path id="DejaVuSans-69" d="M 603 3500 
L 1178 3500 
L 1178 0 
L 603 0 
L 603 3500 
z
M 603 4863 
L 1178 4863 
L 1178 4134 
L 603 4134 
L 603 4863 
z
" transform="scale(0.015625)"/>
       <path id="DejaVuSans-6d" d="M 3328 2828 
Q 3544 3216 3844 3400 
Q 4144 3584 4550 3584 
Q 5097 3584 5394 3201 
Q 5691 2819 5691 2113 
L 5691 0 
L 5113 0 
L 5113 2094 
Q 5113 2597 4934 2840 
Q 4756 3084 4391 3084 
Q 3944 3084 3684 2787 
Q 3425 2491 3425 1978 
L 3425 0 
L 2847 0 
L 2847 2094 
Q 2847 2600 2669 2842 
Q 2491 3084 2119 3084 
Q 1678 3084 1418 2786 
Q 1159 2488 1159 1978 
L 1159 0 
L 581 0 
L 581 3500 
L 1159 3500 
L 1159 2956 
Q 1356 3278 1631 3431 
Q 1906 3584 2284 3584 
Q 2666 3584 2933 3390 
Q 3200 3197 3328 2828 
z
" transform="scale(0.015625)"/>
       <path id="DejaVuSans-65" d="M 3597 1894 
L 3597 1613 
L 953 1613 
Q 991 1019 1311 708 
Q 1631 397 2203 397 
Q 2534 397 2845 478 
Q 3156 559 3463 722 
L 3463 178 
Q 3153 47 2828 -22 
Q 2503 -91 2169 -91 
Q 1331 -91 842 396 
Q 353 884 353 1716 
Q 353 2575 817 3079 
Q 1281 3584 2069 3584 
Q 2775 3584 3186 3129 
Q 3597 2675 3597 1894 
z
M 3022 2063 
Q 3016 2534 2758 2815 
Q 2500 3097 2075 3097 
Q 1594 3097 1305 2825 
Q 1016 2553 972 2059 
L 3022 2063 
z
" transform="scale(0.015625)"/>
       <path id="DejaVuSans-20" transform="scale(0.015625)"/>
       <path id="DejaVuSans-70" d="M 1159 525 
L 1159 -1331 
L 581 -1331 
L 581 3500 
L 1159 3500 
L 1159 2969 
Q 1341 3281 1617 3432 
Q 1894 3584 2278 3584 
Q 2916 3584 3314 3078 
Q 3713 2572 3713 1747 
Q 3713 922 3314 415 
Q 2916 -91 2278 -91 
Q 1894 -91 1617 61 
Q 1341 213 1159 525 
z
M 3116 1747 
Q 3116 2381 2855 2742 
Q 2594 3103 2138 3103 
Q 1681 3103 1420 2742 
Q 1159 2381 1159 1747 
Q 1159 1113 1420 752 
Q 1681 391 2138 391 
Q 2594 391 2855 752 
Q 3116 1113 3116 1747 
z
" transform="scale(0.015625)"/>
       <path id="DejaVuSans-72" d="M 2631 2963 
Q 2534 3019 2420 3045 
Q 2306 3072 2169 3072 
Q 1681 3072 1420 2755 
Q 1159 2438 1159 1844 
L 1159 0 
L 581 0 
L 581 3500 
L 1159 3500 
L 1159 2956 
Q 1341 3275 1631 3429 
Q 1922 3584 2338 3584 
Q 2397 3584 2469 3576 
Q 2541 3569 2628 3553 
L 2631 2963 
z
" transform="scale(0.015625)"/>
       <path id="DejaVuSans-6f" d="M 1959 3097 
Q 1497 3097 1228 2736 
Q 959 2375 959 1747 
Q 959 1119 1226 758 
Q 1494 397 1959 397 
Q 2419 397 2687 759 
Q 2956 1122 2956 1747 
Q 2956 2369 2687 2733 
Q 2419 3097 1959 3097 
z
M 1959 3584 
Q 2709 3584 3137 3096 
Q 3566 2609 3566 1747 
Q 3566 888 3137 398 
Q 2709 -91 1959 -91 
Q 1206 -91 779 398 
Q 353 888 353 1747 
Q 353 2609 779 3096 
Q 1206 3584 1959 3584 
z
" transform="scale(0.015625)"/>
       <path id="DejaVuSans-64" d="M 2906 2969 
L 2906 4863 
L 3481 4863 
L 3481 0 
L 2906 0 
L 2906 525 
Q 2725 213 2448 61 
Q 2172 -91 1784 -91 
Q 1150 -91 751 415 
Q 353 922 353 1747 
Q 353 2572 751 3078 
Q 1150 3584 1784 3584 
Q 2172 3584 2448 3432 
Q 2725 3281 2906 2969 
z
M 947 1747 
Q 947 1113 1208 752 
Q 1469 391 1925 391 
Q 2381 391 2643 752 
Q 2906 1113 2906 1747 
Q 2906 2381 2643 2742 
Q 2381 3103 1925 3103 
Q 1469 3103 1208 2742 
Q 947 2381 947 1747 
z
" transform="scale(0.015625)"/>
      </defs>
      <use xlink:href="#DejaVuSans-54"/>
      <use xlink:href="#DejaVuSans-69" x="57.958984"/>
      <use xlink:href="#DejaVuSans-6d" x="85.742188"/>
      <use xlink:href="#DejaVuSans-65" x="183.154297"/>
      <use xlink:href="#DejaVuSans-20" x="244.677734"/>
      <use xlink:href="#DejaVuSans-70" x="276.464844"/>
      <use xlink:href="#DejaVuSans-65" x="339.941406"/>
      <use xlink:href="#DejaVuSans-72" x="401.464844"/>
      <use xlink:href="#DejaVuSans-69" x="442.578125"/>
      <use xlink:href="#DejaVuSans-6f" x="470.361328"/>
      <use xlink:href="#DejaVuSans-64" x="531.542969"/>
     </g>
    </g>
   </g>
   <g id="matplotlib.axis_2">
    <g id="ytick_1">
     <g id="line2d_10">
      <defs>
       <path id="mabd710989d" d="M 0 0 
L -3.5 0 
" style="stroke: #000000; stroke-width: 0.8"/>
      </defs>
      <g>
       <use xlink:href="#mabd710989d" x="50.14375" y="318.947078" style="stroke: #000000; stroke-width: 0.8"/>
      </g>
     </g>
     <g id="text_11">
      <!-- 0.06 -->
      <g transform="translate(20.878125 322.746297)scale(0.1 -0.1)">
       <defs>
        <path id="DejaVuSans-2e" d="M 684 794 
L 1344 794 
L 1344 0 
L 684 0 
L 684 794 
z
" transform="scale(0.015625)"/>
       </defs>
       <use xlink:href="#DejaVuSans-30"/>
       <use xlink:href="#DejaVuSans-2e" x="63.623047"/>
       <use xlink:href="#DejaVuSans-30" x="95.410156"/>
       <use xlink:href="#DejaVuSans-36" x="159.033203"/>
      </g>
     </g>
    </g>
    <g id="ytick_2">
     <g id="line2d_11">
      <g>
       <use xlink:href="#mabd710989d" x="50.14375" y="268.788984" style="stroke: #000000; stroke-width: 0.8"/>
      </g>
     </g>
     <g id="text_12">
      <!-- 0.08 -->
      <g transform="translate(20.878125 272.588202)scale(0.1 -0.1)">
       <use xlink:href="#DejaVuSans-30"/>
       <use xlink:href="#DejaVuSans-2e" x="63.623047"/>
       <use xlink:href="#DejaVuSans-30" x="95.410156"/>
       <use xlink:href="#DejaVuSans-38" x="159.033203"/>
      </g>
     </g>
    </g>
    <g id="ytick_3">
     <g id="line2d_12">
      <g>
       <use xlink:href="#mabd710989d" x="50.14375" y="218.630889" style="stroke: #000000; stroke-width: 0.8"/>
      </g>
     </g>
     <g id="text_13">
      <!-- 0.10 -->
      <g transform="translate(20.878125 222.430108)scale(0.1 -0.1)">
       <use xlink:href="#DejaVuSans-30"/>
       <use xlink:href="#DejaVuSans-2e" x="63.623047"/>
       <use xlink:href="#DejaVuSans-31" x="95.410156"/>
       <use xlink:href="#DejaVuSans-30" x="159.033203"/>
      </g>
     </g>
    </g>
    <g id="ytick_4">
     <g id="line2d_13">
      <g>
       <use xlink:href="#mabd710989d" x="50.14375" y="168.472795" style="stroke: #000000; stroke-width: 0.8"/>
      </g>
     </g>
     <g id="text_14">
      <!-- 0.12 -->
      <g transform="translate(20.878125 172.272013)scale(0.1 -0.1)">
       <use xlink:href="#DejaVuSans-30"/>
       <use xlink:href="#DejaVuSans-2e" x="63.623047"/>
       <use xlink:href="#DejaVuSans-31" x="95.410156"/>
       <use xlink:href="#DejaVuSans-32" x="159.033203"/>
      </g>
     </g>
    </g>
    <g id="ytick_5">
     <g id="line2d_14">
      <g>
       <use xlink:href="#mabd710989d" x="50.14375" y="118.3147" style="stroke: #000000; stroke-width: 0.8"/>
      </g>
     </g>
     <g id="text_15">
      <!-- 0.14 -->
      <g transform="translate(20.878125 122.113919)scale(0.1 -0.1)">
       <use xlink:href="#DejaVuSans-30"/>
       <use xlink:href="#DejaVuSans-2e" x="63.623047"/>
       <use xlink:href="#DejaVuSans-31" x="95.410156"/>
       <use xlink:href="#DejaVuSans-34" x="159.033203"/>
      </g>
     </g>
    </g>
    <g id="ytick_6">
     <g id="line2d_15">
      <g>
       <use xlink:href="#mabd710989d" x="50.14375" y="68.156606" style="stroke: #000000; stroke-width: 0.8"/>
      </g>
     </g>
     <g id="text_16">
      <!-- 0.16 -->
      <g transform="translate(20.878125 71.955825)scale(0.1 -0.1)">
       <use xlink:href="#DejaVuSans-30"/>
       <use xlink:href="#DejaVuSans-2e" x="63.623047"/>
       <use xlink:href="#DejaVuSans-31" x="95.410156"/>
       <use xlink:href="#DejaVuSans-36" x="159.033203"/>
      </g>
     </g>
    </g>
    <g id="text_17">
     <!-- Relative frequency -->
     <g transform="translate(14.798438 240.767812)rotate(-90)scale(0.1 -0.1)">
      <defs>
       <path id="DejaVuSans-52" d="M 2841 2188 
Q 3044 2119 3236 1894 
Q 3428 1669 3622 1275 
L 4263 0 
L 3584 0 
L 2988 1197 
Q 2756 1666 2539 1819 
Q 2322 1972 1947 1972 
L 1259 1972 
L 1259 0 
L 628 0 
L 628 4666 
L 2053 4666 
Q 2853 4666 3247 4331 
Q 3641 3997 3641 3322 
Q 3641 2881 3436 2590 
Q 3231 2300 2841 2188 
z
M 1259 4147 
L 1259 2491 
L 2053 2491 
Q 2509 2491 2742 2702 
Q 2975 2913 2975 3322 
Q 2975 3731 2742 3939 
Q 2509 4147 2053 4147 
L 1259 4147 
z
" transform="scale(0.015625)"/>
       <path id="DejaVuSans-6c" d="M 603 4863 
L 1178 4863 
L 1178 0 
L 603 0 
L 603 4863 
z
" transform="scale(0.015625)"/>
       <path id="DejaVuSans-61" d="M 2194 1759 
Q 1497 1759 1228 1600 
Q 959 1441 959 1056 
Q 959 750 1161 570 
Q 1363 391 1709 391 
Q 2188 391 2477 730 
Q 2766 1069 2766 1631 
L 2766 1759 
L 2194 1759 
z
M 3341 1997 
L 3341 0 
L 2766 0 
L 2766 531 
Q 2569 213 2275 61 
Q 1981 -91 1556 -91 
Q 1019 -91 701 211 
Q 384 513 384 1019 
Q 384 1609 779 1909 
Q 1175 2209 1959 2209 
L 2766 2209 
L 2766 2266 
Q 2766 2663 2505 2880 
Q 2244 3097 1772 3097 
Q 1472 3097 1187 3025 
Q 903 2953 641 2809 
L 641 3341 
Q 956 3463 1253 3523 
Q 1550 3584 1831 3584 
Q 2591 3584 2966 3190 
Q 3341 2797 3341 1997 
z
" transform="scale(0.015625)"/>
       <path id="DejaVuSans-74" d="M 1172 4494 
L 1172 3500 
L 2356 3500 
L 2356 3053 
L 1172 3053 
L 1172 1153 
Q 1172 725 1289 603 
Q 1406 481 1766 481 
L 2356 481 
L 2356 0 
L 1766 0 
Q 1100 0 847 248 
Q 594 497 594 1153 
L 594 3053 
L 172 3053 
L 172 3500 
L 594 3500 
L 594 4494 
L 1172 4494 
z
" transform="scale(0.015625)"/>
       <path id="DejaVuSans-76" d="M 191 3500 
L 800 3500 
L 1894 563 
L 2988 3500 
L 3597 3500 
L 2284 0 
L 1503 0 
L 191 3500 
z
" transform="scale(0.015625)"/>
       <path id="DejaVuSans-66" d="M 2375 4863 
L 2375 4384 
L 1825 4384 
Q 1516 4384 1395 4259 
Q 1275 4134 1275 3809 
L 1275 3500 
L 2222 3500 
L 2222 3053 
L 1275 3053 
L 1275 0 
L 697 0 
L 697 3053 
L 147 3053 
L 147 3500 
L 697 3500 
L 697 3744 
Q 697 4328 969 4595 
Q 1241 4863 1831 4863 
L 2375 4863 
z
" transform="scale(0.015625)"/>
       <path id="DejaVuSans-71" d="M 947 1747 
Q 947 1113 1208 752 
Q 1469 391 1925 391 
Q 2381 391 2643 752 
Q 2906 1113 2906 1747 
Q 2906 2381 2643 2742 
Q 2381 3103 1925 3103 
Q 1469 3103 1208 2742 
Q 947 2381 947 1747 
z
M 2906 525 
Q 2725 213 2448 61 
Q 2172 -91 1784 -91 
Q 1150 -91 751 415 
Q 353 922 353 1747 
Q 353 2572 751 3078 
Q 1150 3584 1784 3584 
Q 2172 3584 2448 3432 
Q 2725 3281 2906 2969 
L 2906 3500 
L 3481 3500 
L 3481 -1331 
L 2906 -1331 
L 2906 525 
z
" transform="scale(0.015625)"/>
       <path id="DejaVuSans-75" d="M 544 1381 
L 544 3500 
L 1119 3500 
L 1119 1403 
Q 1119 906 1312 657 
Q 1506 409 1894 409 
Q 2359 409 2629 706 
Q 2900 1003 2900 1516 
L 2900 3500 
L 3475 3500 
L 3475 0 
L 2900 0 
L 2900 538 
Q 2691 219 2414 64 
Q 2138 -91 1772 -91 
Q 1169 -91 856 284 
Q 544 659 544 1381 
z
M 1991 3584 
L 1991 3584 
z
" transform="scale(0.015625)"/>
       <path id="DejaVuSans-6e" d="M 3513 2113 
L 3513 0 
L 2938 0 
L 2938 2094 
Q 2938 2591 2744 2837 
Q 2550 3084 2163 3084 
Q 1697 3084 1428 2787 
Q 1159 2491 1159 1978 
L 1159 0 
L 581 0 
L 581 3500 
L 1159 3500 
L 1159 2956 
Q 1366 3272 1645 3428 
Q 1925 3584 2291 3584 
Q 2894 3584 3203 3211 
Q 3513 2838 3513 2113 
z
" transform="scale(0.015625)"/>
       <path id="DejaVuSans-63" d="M 3122 3366 
L 3122 2828 
Q 2878 2963 2633 3030 
Q 2388 3097 2138 3097 
Q 1578 3097 1268 2742 
Q 959 2388 959 1747 
Q 959 1106 1268 751 
Q 1578 397 2138 397 
Q 2388 397 2633 464 
Q 2878 531 3122 666 
L 3122 134 
Q 2881 22 2623 -34 
Q 2366 -91 2075 -91 
Q 1284 -91 818 406 
Q 353 903 353 1747 
Q 353 2603 823 3093 
Q 1294 3584 2113 3584 
Q 2378 3584 2631 3529 
Q 2884 3475 3122 3366 
z
" transform="scale(0.015625)"/>
       <path id="DejaVuSans-79" d="M 2059 -325 
Q 1816 -950 1584 -1140 
Q 1353 -1331 966 -1331 
L 506 -1331 
L 506 -850 
L 844 -850 
Q 1081 -850 1212 -737 
Q 1344 -625 1503 -206 
L 1606 56 
L 191 3500 
L 800 3500 
L 1894 763 
L 2988 3500 
L 3597 3500 
L 2059 -325 
z
" transform="scale(0.015625)"/>
      </defs>
      <use xlink:href="#DejaVuSans-52"/>
      <use xlink:href="#DejaVuSans-65" x="64.982422"/>
      <use xlink:href="#DejaVuSans-6c" x="126.505859"/>
      <use xlink:href="#DejaVuSans-61" x="154.289062"/>
      <use xlink:href="#DejaVuSans-74" x="215.568359"/>
      <use xlink:href="#DejaVuSans-69" x="254.777344"/>
      <use xlink:href="#DejaVuSans-76" x="282.560547"/>
      <use xlink:href="#DejaVuSans-65" x="341.740234"/>
      <use xlink:href="#DejaVuSans-20" x="403.263672"/>
      <use xlink:href="#DejaVuSans-66" x="435.050781"/>
      <use xlink:href="#DejaVuSans-72" x="470.255859"/>
      <use xlink:href="#DejaVuSans-65" x="509.119141"/>
      <use xlink:href="#DejaVuSans-71" x="570.642578"/>
      <use xlink:href="#DejaVuSans-75" x="634.119141"/>
      <use xlink:href="#DejaVuSans-65" x="697.498047"/>
      <use xlink:href="#DejaVuSans-6e" x="759.021484"/>
      <use xlink:href="#DejaVuSans-63" x="822.400391"/>
      <use xlink:href="#DejaVuSans-79" x="877.380859"/>
     </g>
    </g>
   </g>
   <g id="line2d_16">
    <path d="M 163.829318 87.200615 
L 177.204091 89.894665 
L 177.204091 89.894665 
L 177.204091 89.894665 
L 197.26625 93.843929 
L 210.641023 96.417653 
L 217.328409 97.68719 
L 217.328409 97.68719 
L 224.015795 98.944276 
L 224.015795 98.944276 
L 224.015795 98.944276 
L 230.703182 100.188363 
L 230.703182 100.188363 
L 237.390568 101.420009 
L 237.390568 101.420009 
L 244.077955 102.639222 
L 244.077955 102.639222 
L 277.514886 108.557692 
L 284.202273 109.713167 
L 284.202273 109.713167 
L 290.889659 110.862718 
L 297.577045 112.006279 
L 297.577045 112.006279 
L 297.577045 112.006279 
L 310.951818 114.278358 
L 317.639205 115.408366 
L 351.076136 120.364743 
L 357.763523 121.535237 
L 357.763523 121.535237 
L 364.450909 122.70403 
L 364.450909 122.70403 
L 364.450909 122.70403 
L 377.825682 123.455882 
L 391.200455 122.206397 
L 391.200455 122.206397 
L 404.575227 121.624085 
L 411.262614 121.649744 
L 417.95 121.580294 
L 424.637386 120.66507 
L 424.637386 120.66507 
L 424.637386 120.66507 
L 431.324773 119.589996 
L 438.012159 118.466521 
L 438.012159 118.466521 
L 438.012159 118.466521 
L 438.012159 118.466521 
L 451.386932 116.36917 
L 464.761705 114.617931 
L 464.761705 114.617931 
L 471.449091 113.710755 
L 471.449091 113.710755 
L 471.449091 113.710755 
L 491.51125 110.366018 
L 491.51125 110.366018 
L 491.51125 110.366018 
L 491.51125 110.366018 
L 498.198636 109.108427 
L 498.198636 109.108427 
L 498.198636 109.108427 
L 498.198636 109.108427 
L 504.886023 108.095304 
L 504.886023 108.095304 
L 504.886023 108.095304 
L 518.260795 106.047766 
L 518.260795 106.047766 
L 518.260795 106.047766 
L 518.260795 106.047766 
L 518.260795 106.047766 
L 518.260795 106.047766 
L 524.948182 104.707121 
L 524.948182 104.707121 
L 531.635568 103.334491 
L 531.635568 103.334491 
L 531.635568 103.334491 
L 531.635568 103.334491 
L 538.322955 101.979669 
L 545.010341 100.658696 
L 545.010341 100.658696 
L 551.697727 99.37343 
L 551.697727 99.37343 
L 558.385114 98.118478 
L 558.385114 98.118478 
L 558.385114 98.118478 
L 558.385114 98.118478 
L 565.0725 96.887587 
L 565.0725 96.887587 
L 571.759886 95.67032 
L 571.759886 95.67032 
L 585.134659 93.234609 
L 585.134659 93.234609 
L 598.509432 90.738389 
L 611.884205 88.130415 
L 611.884205 88.130415 
L 611.884205 88.130415 
L 611.884205 88.130415 
L 611.884205 88.130415 
L 611.884205 88.130415 
L 611.884205 88.130415 
L 611.884205 88.130415 
L 611.884205 88.130415 
" clip-path="url(#p7cf0eb762e)" style="fill: none; stroke: #1f77b4; stroke-width: 2.25; stroke-linecap: square"/>
   </g>
   <g id="line2d_17">
    <path d="M 76.893295 72.221529 
L 177.204091 72.191246 
L 190.578864 72.279534 
L 197.26625 72.309 
L 210.641023 72.31715 
L 250.765341 71.911911 
L 257.452727 71.955441 
L 304.264432 74.128829 
L 344.38875 80.050721 
L 351.076136 81.062148 
L 351.076136 81.062148 
L 351.076136 81.062148 
L 357.763523 81.439146 
L 357.763523 81.439146 
L 364.450909 82.125396 
L 364.450909 82.125396 
L 377.825682 82.775564 
L 384.513068 82.983364 
L 384.513068 82.983364 
L 391.200455 83.14756 
L 397.887841 83.30579 
L 411.262614 83.639261 
L 417.95 83.833626 
L 424.637386 84.160287 
L 424.637386 84.160287 
L 424.637386 84.160287 
L 424.637386 84.160287 
L 424.637386 84.160287 
L 431.324773 84.96712 
L 438.012159 84.771349 
L 444.699545 84.760088 
L 444.699545 84.760088 
L 451.386932 83.822721 
L 451.386932 83.822721 
L 464.761705 81.356988 
L 464.761705 81.356988 
L 471.449091 79.818901 
L 478.136477 77.932035 
L 491.51125 73.716885 
L 491.51125 73.716885 
L 504.886023 71.436233 
L 504.886023 71.436233 
L 511.573409 72.026354 
L 511.573409 72.026354 
L 511.573409 72.026354 
L 518.260795 73.087319 
L 518.260795 73.087319 
L 524.948182 74.217913 
L 538.322955 76.271665 
L 551.697727 78.043865 
L 558.385114 78.876096 
L 571.759886 80.567569 
L 578.447273 81.482148 
L 598.509432 84.783008 
L 605.196818 86.120945 
" clip-path="url(#p7cf0eb762e)" style="fill: none; stroke: #ff7f0e; stroke-width: 2.25; stroke-linecap: square"/>
   </g>
   <g id="line2d_18">
    <path d="M 76.893295 109.593873 
L 76.893295 109.593873 
L 83.580682 110.555699 
L 83.580682 110.555699 
L 96.955455 112.428989 
L 96.955455 112.428989 
L 96.955455 112.428989 
L 103.642841 113.339882 
L 110.330227 114.233682 
L 110.330227 114.233682 
L 117.017614 115.111042 
L 117.017614 115.111042 
L 117.017614 115.111042 
L 123.705 115.972207 
L 123.705 115.972207 
L 130.392386 116.817221 
L 163.829318 120.798276 
L 177.204091 122.273692 
L 177.204091 122.273692 
L 177.204091 122.273692 
L 177.204091 122.273692 
L 183.891477 122.985996 
L 203.953636 125.019141 
L 203.953636 125.019141 
L 203.953636 125.019141 
L 217.328409 126.296179 
L 217.328409 126.296179 
L 224.015795 126.921016 
L 230.703182 127.545568 
L 237.390568 128.176408 
L 237.390568 128.176408 
L 244.077955 128.813592 
L 244.077955 128.813592 
L 257.452727 129.974644 
L 257.452727 129.974644 
L 264.140114 129.851393 
L 270.8275 129.639213 
L 277.514886 129.721539 
L 284.202273 129.267207 
L 290.889659 128.723871 
L 304.264432 127.050833 
L 317.639205 125.188053 
L 317.639205 125.188053 
L 331.013977 123.560277 
L 337.701364 122.96911 
L 337.701364 122.96911 
L 337.701364 122.96911 
L 337.701364 122.96911 
L 344.38875 122.228608 
L 344.38875 122.228608 
L 344.38875 122.228608 
L 351.076136 121.137283 
L 357.763523 119.972904 
L 371.138295 117.542889 
L 377.825682 116.071792 
L 384.513068 115.212161 
L 391.200455 114.171299 
L 397.887841 112.897013 
L 397.887841 112.897013 
L 397.887841 112.897013 
L 404.575227 112.085157 
L 404.575227 112.085157 
L 411.262614 111.370236 
L 424.637386 110.533265 
L 438.012159 109.699406 
L 444.699545 109.874936 
L 444.699545 109.874936 
L 451.386932 110.157681 
L 451.386932 110.157681 
L 458.074318 110.495704 
L 458.074318 110.495704 
L 464.761705 110.862134 
L 464.761705 110.862134 
L 464.761705 110.862134 
L 471.449091 111.246183 
L 484.823864 112.055476 
L 498.198636 112.918991 
L 498.198636 112.918991 
L 498.198636 112.918991 
L 511.573409 113.839012 
L 518.260795 114.321215 
L 524.948182 114.818315 
L 531.635568 115.330531 
L 531.635568 115.330531 
L 538.322955 115.858403 
L 538.322955 115.858403 
L 545.010341 116.402052 
L 551.697727 116.960771 
L 558.385114 117.53404 
L 565.0725 118.121961 
L 571.759886 118.725472 
L 571.759886 118.725472 
L 571.759886 118.725472 
L 578.447273 119.346235 
L 578.447273 119.346235 
L 598.509432 121.325933 
L 598.509432 121.325933 
L 605.196818 122.028038 
L 611.884205 122.750762 
" clip-path="url(#p7cf0eb762e)" style="fill: none; stroke: #2ca02c; stroke-width: 2.25; stroke-linecap: square"/>
   </g>
   <g id="line2d_19">
    <path d="M 203.953636 37.919943 
L 250.765341 61.700203 
L 277.514886 75.296746 
L 277.514886 75.296746 
L 297.577045 85.116516 
L 310.951818 91.473236 
L 317.639205 94.62975 
L 317.639205 94.62975 
L 317.639205 94.62975 
L 317.639205 94.62975 
L 317.639205 94.62975 
L 324.326591 97.815109 
L 324.326591 97.815109 
L 324.326591 97.815109 
L 351.076136 112.049106 
L 351.076136 112.049106 
L 357.763523 115.649274 
L 364.450909 119.456231 
L 364.450909 119.456231 
L 364.450909 119.456231 
L 364.450909 119.456231 
L 371.138295 123.207322 
L 371.138295 123.207322 
L 377.825682 126.88869 
L 377.825682 126.88869 
L 377.825682 126.88869 
L 384.513068 130.528416 
L 384.513068 130.528416 
L 391.200455 134.163582 
L 404.575227 139.803004 
L 404.575227 139.803004 
L 417.95 143.570295 
L 417.95 143.570295 
L 417.95 143.570295 
L 424.637386 144.363846 
L 424.637386 144.363846 
L 431.324773 145.061953 
L 438.012159 145.74785 
L 438.012159 145.74785 
L 444.699545 146.268218 
L 444.699545 146.268218 
L 444.699545 146.268218 
L 451.386932 146.649345 
L 451.386932 146.649345 
L 451.386932 146.649345 
L 458.074318 147.135814 
L 458.074318 147.135814 
L 458.074318 147.135814 
L 464.761705 147.401881 
L 471.449091 147.328001 
L 478.136477 147.068634 
L 478.136477 147.068634 
L 484.823864 146.701968 
L 484.823864 146.701968 
L 491.51125 146.356201 
L 498.198636 146.135062 
L 498.198636 146.135062 
L 498.198636 146.135062 
L 498.198636 146.135062 
L 504.886023 146.506974 
L 504.886023 146.506974 
L 504.886023 146.506974 
L 504.886023 146.506974 
L 504.886023 146.506974 
L 504.886023 146.506974 
L 511.573409 146.625287 
L 511.573409 146.625287 
L 511.573409 146.625287 
L 518.260795 147.092075 
L 524.948182 147.754086 
L 524.948182 147.754086 
L 524.948182 147.754086 
L 531.635568 148.459166 
L 538.322955 149.140292 
L 538.322955 149.140292 
L 538.322955 149.140292 
L 538.322955 149.140292 
L 538.322955 149.140292 
L 545.010341 149.774885 
L 545.010341 149.774885 
L 545.010341 149.774885 
L 545.010341 149.774885 
L 551.697727 150.370291 
L 551.697727 150.370291 
L 551.697727 150.370291 
L 558.385114 150.940087 
L 565.0725 151.498014 
L 565.0725 151.498014 
L 565.0725 151.498014 
L 571.759886 152.052574 
L 578.447273 152.614107 
L 585.134659 153.194101 
L 591.822045 153.800971 
L 591.822045 153.800971 
L 591.822045 153.800971 
L 591.822045 153.800971 
L 598.509432 154.444676 
L 605.196818 155.125215 
" clip-path="url(#p7cf0eb762e)" style="fill: none; stroke: #d62728; stroke-width: 2.25; stroke-linecap: square"/>
   </g>
   <g id="line2d_20">
    <path d="M 76.893295 175.804798 
L 83.580682 176.070698 
L 90.268068 176.293416 
L 90.268068 176.293416 
L 103.642841 176.609804 
L 103.642841 176.609804 
L 117.017614 176.7605 
L 143.767159 176.643731 
L 157.141932 176.447335 
L 157.141932 176.447335 
L 157.141932 176.447335 
L 163.829318 176.335817 
L 163.829318 176.335817 
L 177.204091 176.118793 
L 177.204091 176.118793 
L 183.891477 176.028839 
L 183.891477 176.028839 
L 183.891477 176.028839 
L 183.891477 176.028839 
L 190.578864 175.960742 
L 190.578864 175.960742 
L 190.578864 175.960742 
L 203.953636 175.904414 
L 203.953636 175.904414 
L 210.641023 175.914553 
L 224.015795 175.9541 
L 230.703182 175.901797 
L 244.077955 175.140011 
L 257.452727 173.412458 
L 290.889659 168.758498 
L 290.889659 168.758498 
L 297.577045 167.036866 
L 304.264432 165.95099 
L 304.264432 165.95099 
L 304.264432 165.95099 
L 310.951818 163.923663 
L 310.951818 163.923663 
L 310.951818 163.923663 
L 317.639205 164.034157 
L 317.639205 164.034157 
L 324.326591 164.311498 
L 331.013977 163.116183 
L 331.013977 163.116183 
L 337.701364 163.282435 
L 337.701364 163.282435 
L 344.38875 163.825574 
L 351.076136 164.843126 
L 351.076136 164.843126 
L 351.076136 164.843126 
L 357.763523 165.904546 
L 364.450909 166.850475 
L 371.138295 167.813499 
L 377.825682 168.98649 
L 377.825682 168.98649 
L 377.825682 168.98649 
L 377.825682 168.98649 
L 384.513068 170.257099 
L 384.513068 170.257099 
L 391.200455 171.479428 
L 391.200455 171.479428 
L 391.200455 171.479428 
L 404.575227 173.83562 
L 411.262614 174.979371 
L 411.262614 174.979371 
L 411.262614 174.979371 
L 411.262614 174.979371 
L 417.95 176.1082 
L 424.637386 177.234781 
L 438.012159 179.514928 
L 438.012159 179.514928 
L 444.699545 180.605834 
L 451.386932 181.645278 
L 458.074318 182.263874 
L 464.761705 182.643695 
L 478.136477 183.032277 
L 478.136477 183.032277 
L 491.51125 183.333397 
L 491.51125 183.333397 
L 491.51125 183.333397 
L 498.198636 183.493928 
L 498.198636 183.493928 
L 511.573409 183.843518 
L 511.573409 183.843518 
L 524.948182 184.211551 
L 531.635568 184.391241 
L 538.322955 184.563116 
L 538.322955 184.563116 
L 538.322955 184.563116 
L 545.010341 184.723738 
L 545.010341 184.723738 
L 571.759886 185.181574 
L 571.759886 185.181574 
L 571.759886 185.181574 
L 578.447273 185.240211 
L 578.447273 185.240211 
L 591.822045 185.279963 
L 591.822045 185.279963 
L 591.822045 185.279963 
L 598.509432 185.258443 
L 605.196818 185.208305 
" clip-path="url(#p7cf0eb762e)" style="fill: none; stroke: #9467bd; stroke-width: 2.25; stroke-linecap: square"/>
   </g>
   <g id="line2d_21">
    <path d="M 90.268068 240.179104 
L 103.642841 237.328978 
L 110.330227 235.892925 
L 110.330227 235.892925 
L 117.017614 234.450525 
L 117.017614 234.450525 
L 117.017614 234.450525 
L 123.705 233.002507 
L 130.392386 231.549741 
L 157.141932 225.709162 
L 157.141932 225.709162 
L 170.516705 222.786102 
L 170.516705 222.786102 
L 170.516705 222.786102 
L 177.204091 221.326922 
L 177.204091 221.326922 
L 183.891477 219.870019 
L 183.891477 219.870019 
L 190.578864 218.415041 
L 190.578864 218.415041 
L 197.26625 216.961522 
L 203.953636 215.508671 
L 210.641023 214.055589 
L 210.641023 214.055589 
L 210.641023 214.055589 
L 210.641023 214.055589 
L 217.328409 212.600854 
L 224.015795 211.142927 
L 224.015795 211.142927 
L 230.703182 209.679832 
L 237.390568 208.208757 
L 250.765341 205.233459 
L 250.765341 205.233459 
L 257.452727 203.726296 
L 270.8275 200.682464 
L 290.889659 198.147489 
L 290.889659 198.147489 
L 297.577045 197.801384 
L 310.951818 197.967612 
L 317.639205 197.600413 
L 331.013977 196.822637 
L 331.013977 196.822637 
L 331.013977 196.822637 
L 344.38875 195.187035 
L 351.076136 194.799389 
L 357.763523 193.625668 
L 384.513068 193.24893 
L 391.200455 193.973149 
L 397.887841 194.623583 
L 404.575227 194.950402 
L 417.95 195.823333 
L 424.637386 196.359984 
L 424.637386 196.359984 
L 424.637386 196.359984 
L 431.324773 196.979074 
L 431.324773 196.979074 
L 438.012159 197.838508 
L 444.699545 198.466623 
L 444.699545 198.466623 
L 444.699545 198.466623 
L 444.699545 198.466623 
L 444.699545 198.466623 
L 451.386932 198.600279 
L 451.386932 198.600279 
L 451.386932 198.600279 
L 458.074318 198.643288 
L 458.074318 198.643288 
L 464.761705 198.668019 
L 464.761705 198.668019 
L 471.449091 198.702858 
L 484.823864 198.822241 
L 484.823864 198.822241 
L 491.51125 198.90028 
L 498.198636 198.983194 
L 518.260795 199.204769 
L 518.260795 199.204769 
L 524.948182 199.255509 
L 531.635568 199.291069 
L 531.635568 199.291069 
L 531.635568 199.291069 
L 531.635568 199.291069 
L 531.635568 199.291069 
L 538.322955 199.310454 
L 545.010341 199.313652 
L 551.697727 199.300811 
L 551.697727 199.300811 
L 551.697727 199.300811 
L 558.385114 199.272069 
L 565.0725 199.227659 
L 571.759886 199.167381 
L 585.134659 198.999541 
L 585.134659 198.999541 
L 598.509432 198.775172 
L 598.509432 198.775172 
L 605.196818 198.647373 
L 605.196818 198.647373 
L 605.196818 198.647373 
L 611.884205 198.513504 
L 611.884205 198.513504 
L 611.884205 198.513504 
" clip-path="url(#p7cf0eb762e)" style="fill: none; stroke: #8c564b; stroke-width: 2.25; stroke-linecap: square"/>
   </g>
   <g id="line2d_22">
    <path d="M 76.893295 199.384353 
L 96.955455 200.08615 
L 103.642841 200.297685 
L 110.330227 200.499653 
L 110.330227 200.499653 
L 110.330227 200.499653 
L 117.017614 200.69373 
L 123.705 200.880286 
L 123.705 200.880286 
L 130.392386 201.059177 
L 137.079773 201.229127 
L 150.454545 201.536164 
L 157.141932 201.67117 
L 157.141932 201.67117 
L 163.829318 201.792692 
L 163.829318 201.792692 
L 170.516705 201.90042 
L 170.516705 201.90042 
L 177.204091 201.995003 
L 183.891477 202.077916 
L 183.891477 202.077916 
L 190.578864 202.150648 
L 190.578864 202.150648 
L 190.578864 202.150648 
L 197.26625 202.214977 
L 210.641023 202.318405 
L 217.328409 202.354082 
L 224.015795 202.375596 
L 230.703182 202.378303 
L 244.077955 202.26489 
L 257.452727 202.311898 
L 257.452727 202.311898 
L 264.140114 202.218605 
L 264.140114 202.218605 
L 270.8275 202.246001 
L 270.8275 202.246001 
L 270.8275 202.246001 
L 290.889659 202.32691 
L 304.264432 202.493844 
L 317.639205 202.453044 
L 317.639205 202.453044 
L 324.326591 202.066465 
L 331.013977 202.098702 
L 331.013977 202.098702 
L 331.013977 202.098702 
L 331.013977 202.098702 
L 331.013977 202.098702 
L 337.701364 202.256859 
L 351.076136 203.177784 
L 351.076136 203.177784 
L 357.763523 203.664961 
L 364.450909 204.258855 
L 364.450909 204.258855 
L 364.450909 204.258855 
L 364.450909 204.258855 
L 371.138295 204.936679 
L 377.825682 205.522142 
L 377.825682 205.522142 
L 384.513068 206.481142 
L 384.513068 206.481142 
L 391.200455 207.211411 
L 391.200455 207.211411 
L 397.887841 208.027201 
L 397.887841 208.027201 
L 397.887841 208.027201 
L 404.575227 208.988318 
L 411.262614 209.970301 
L 411.262614 209.970301 
L 424.637386 211.594496 
L 431.324773 212.013869 
L 438.012159 212.654901 
L 438.012159 212.654901 
L 458.074318 213.679539 
L 458.074318 213.679539 
L 464.761705 214.043161 
L 478.136477 214.810214 
L 491.51125 215.613443 
L 491.51125 215.613443 
L 491.51125 215.613443 
L 498.198636 216.021394 
L 504.886023 216.431046 
L 504.886023 216.431046 
L 504.886023 216.431046 
L 518.260795 217.249752 
L 524.948182 217.654471 
L 524.948182 217.654471 
L 531.635568 218.053162 
L 538.322955 218.443111 
L 545.010341 218.821963 
L 545.010341 218.821963 
L 545.010341 218.821963 
L 558.385114 219.540018 
L 558.385114 219.540018 
L 558.385114 219.540018 
L 558.385114 219.540018 
L 565.0725 219.876274 
L 565.0725 219.876274 
L 585.134659 220.795808 
L 605.196818 221.604678 
L 605.196818 221.604678 
" clip-path="url(#p7cf0eb762e)" style="fill: none; stroke: #e377c2; stroke-width: 2.25; stroke-linecap: square"/>
   </g>
   <g id="line2d_23">
    <path d="M 96.955455 226.449236 
L 103.642841 226.291622 
L 117.017614 226.012037 
L 117.017614 226.012037 
L 130.392386 225.767568 
L 137.079773 225.657584 
L 170.516705 225.22017 
L 177.204091 225.157699 
L 190.578864 225.068184 
L 190.578864 225.068184 
L 190.578864 225.068184 
L 197.26625 225.045171 
L 197.26625 225.045171 
L 197.26625 225.045171 
L 217.328409 225.094067 
L 224.015795 225.165323 
L 224.015795 225.165323 
L 230.703182 225.276274 
L 230.703182 225.276274 
L 237.390568 225.438975 
L 237.390568 225.438975 
L 244.077955 225.670715 
L 250.765341 225.996088 
L 250.765341 225.996088 
L 257.452727 226.440739 
L 257.452727 226.440739 
L 257.452727 226.440739 
L 257.452727 226.440739 
L 264.140114 227.011123 
L 264.140114 227.011123 
L 264.140114 227.011123 
L 277.514886 228.645484 
L 277.514886 228.645484 
L 277.514886 228.645484 
L 284.202273 229.543775 
L 297.577045 231.524191 
L 297.577045 231.524191 
L 297.577045 231.524191 
L 297.577045 231.524191 
L 304.264432 232.6191 
L 304.264432 232.6191 
L 304.264432 232.6191 
L 310.951818 233.596046 
L 310.951818 233.596046 
L 310.951818 233.596046 
L 310.951818 233.596046 
L 317.639205 234.691063 
L 317.639205 234.691063 
L 324.326591 235.959579 
L 331.013977 237.427868 
L 331.013977 237.427868 
L 337.701364 239.049348 
L 351.076136 241.911604 
L 351.076136 241.911604 
L 351.076136 241.911604 
L 364.450909 245.428831 
L 384.513068 248.177588 
L 397.887841 248.86857 
L 397.887841 248.86857 
L 404.575227 247.926219 
L 417.95 247.514623 
L 417.95 247.514623 
L 424.637386 246.958269 
L 424.637386 246.958269 
L 424.637386 246.958269 
L 438.012159 248.098537 
L 444.699545 247.369683 
L 458.074318 246.223362 
L 471.449091 245.46577 
L 471.449091 245.46577 
L 478.136477 245.175971 
L 478.136477 245.175971 
L 478.136477 245.175971 
L 478.136477 245.175971 
L 484.823864 244.918719 
L 484.823864 244.918719 
L 498.198636 244.441987 
L 498.198636 244.441987 
L 498.198636 244.441987 
L 504.886023 244.20269 
L 504.886023 244.20269 
L 511.573409 243.956463 
L 511.573409 243.956463 
L 518.260795 243.701649 
L 518.260795 243.701649 
L 518.260795 243.701649 
L 518.260795 243.701649 
L 531.635568 243.168592 
L 531.635568 243.168592 
L 531.635568 243.168592 
L 531.635568 243.168592 
L 531.635568 243.168592 
L 531.635568 243.168592 
L 558.385114 242.076939 
L 571.759886 241.557258 
L 571.759886 241.557258 
L 585.134659 241.091713 
L 585.134659 241.091713 
L 591.822045 240.891384 
L 591.822045 240.891384 
" clip-path="url(#p7cf0eb762e)" style="fill: none; stroke: #7f7f7f; stroke-width: 2.25; stroke-linecap: square"/>
   </g>
   <g id="line2d_24">
    <path d="M 76.893295 298.277762 
L 83.580682 297.301125 
L 103.642841 294.448946 
L 103.642841 294.448946 
L 110.330227 293.529622 
L 117.017614 292.628372 
L 123.705 291.745914 
L 123.705 291.745914 
L 130.392386 290.882388 
L 130.392386 290.882388 
L 130.392386 290.882388 
L 137.079773 290.037795 
L 143.767159 289.211952 
L 150.454545 288.404138 
L 163.829318 286.837406 
L 163.829318 286.837406 
L 170.516705 286.07593 
L 177.204091 285.327523 
L 183.891477 284.591 
L 183.891477 284.591 
L 190.578864 283.864855 
L 210.641023 281.73597 
L 217.328409 281.037177 
L 224.015795 280.340165 
L 224.015795 280.340165 
L 230.703182 279.642288 
L 237.390568 278.940927 
L 237.390568 278.940927 
L 244.077955 278.234202 
L 244.077955 278.234202 
L 244.077955 278.234202 
L 250.765341 277.526136 
L 250.765341 277.526136 
L 257.452727 276.838475 
L 277.514886 275.659159 
L 284.202273 275.5315 
L 290.889659 275.532076 
L 290.889659 275.532076 
L 304.264432 275.376549 
L 304.264432 275.376549 
L 304.264432 275.376549 
L 317.639205 275.482973 
L 324.326591 275.606021 
L 344.38875 275.68933 
L 357.763523 275.91147 
L 364.450909 276.035024 
L 364.450909 276.035024 
L 371.138295 276.334332 
L 377.825682 276.466494 
L 384.513068 276.558533 
L 391.200455 276.584335 
L 391.200455 276.584335 
L 391.200455 276.584335 
L 397.887841 276.522833 
L 404.575227 276.268692 
L 411.262614 276.07257 
L 411.262614 276.07257 
L 417.95 275.749939 
L 417.95 275.749939 
L 424.637386 275.470765 
L 431.324773 275.216805 
L 431.324773 275.216805 
L 438.012159 274.892021 
L 438.012159 274.892021 
L 444.699545 274.566061 
L 444.699545 274.566061 
L 444.699545 274.566061 
L 444.699545 274.566061 
L 444.699545 274.566061 
L 451.386932 274.21562 
L 451.386932 274.21562 
L 458.074318 273.876198 
L 458.074318 273.876198 
L 458.074318 273.876198 
L 464.761705 273.525592 
L 478.136477 272.781609 
L 478.136477 272.781609 
L 478.136477 272.781609 
L 484.823864 272.392175 
L 484.823864 272.392175 
L 491.51125 271.994387 
L 518.260795 270.352505 
L 524.948182 269.9348 
L 524.948182 269.9348 
L 531.635568 269.516089 
L 538.322955 269.097233 
L 538.322955 269.097233 
L 545.010341 268.678872 
L 551.697727 268.261224 
L 558.385114 267.8443 
L 558.385114 267.8443 
L 578.447273 266.599234 
L 591.822045 265.774408 
L 598.509432 265.363309 
L 598.509432 265.363309 
L 605.196818 264.952439 
L 605.196818 264.952439 
L 605.196818 264.952439 
L 605.196818 264.952439 
L 611.884205 264.540587 
" clip-path="url(#p7cf0eb762e)" style="fill: none; stroke: #bcbd22; stroke-width: 2.25; stroke-linecap: square"/>
   </g>
   <g id="line2d_25">
    <path d="M 203.953636 337.793481 
L 224.015795 338.770342 
L 230.703182 339.049453 
L 230.703182 339.049453 
L 264.140114 340.080409 
L 270.8275 340.227782 
L 270.8275 340.227782 
L 304.264432 340.936463 
L 304.264432 340.936463 
L 310.951818 341.138189 
L 310.951818 341.138189 
L 310.951818 341.138189 
L 310.951818 341.138189 
L 317.639205 341.392024 
L 331.013977 342.117104 
L 337.701364 342.601507 
L 337.701364 342.601507 
L 337.701364 342.601507 
L 337.701364 342.601507 
L 344.38875 343.110772 
L 371.138295 342.966397 
L 384.513068 341.763666 
L 391.200455 341.196828 
L 391.200455 341.196828 
L 397.887841 340.231944 
L 397.887841 340.231944 
L 397.887841 340.231944 
L 397.887841 340.231944 
L 404.575227 339.136381 
L 404.575227 339.136381 
L 404.575227 339.136381 
L 417.95 338.625529 
L 417.95 338.625529 
L 424.637386 338.147803 
L 424.637386 338.147803 
L 424.637386 338.147803 
L 424.637386 338.147803 
L 431.324773 338.688861 
L 431.324773 338.688861 
L 431.324773 338.688861 
L 431.324773 338.688861 
L 431.324773 338.688861 
L 438.012159 339.699021 
L 438.012159 339.699021 
L 438.012159 339.699021 
L 444.699545 340.923076 
L 444.699545 340.923076 
L 451.386932 342.144554 
L 451.386932 342.144554 
L 451.386932 342.144554 
L 451.386932 342.144554 
L 451.386932 342.144554 
L 458.074318 343.305789 
L 458.074318 343.305789 
L 464.761705 344.804131 
L 471.449091 345.846013 
L 471.449091 345.846013 
L 471.449091 345.846013 
L 471.449091 345.846013 
L 478.136477 346.846564 
L 478.136477 346.846564 
L 478.136477 346.846564 
L 484.823864 347.661526 
L 484.823864 347.661526 
L 484.823864 347.661526 
L 491.51125 348.170752 
L 491.51125 348.170752 
L 491.51125 348.170752 
L 491.51125 348.170752 
L 498.198636 348.356041 
L 498.198636 348.356041 
L 504.886023 348.714184 
L 504.886023 348.714184 
L 511.573409 349.500744 
L 518.260795 349.956307 
L 518.260795 349.956307 
L 518.260795 349.956307 
L 518.260795 349.956307 
L 524.948182 349.356662 
L 524.948182 349.356662 
L 531.635568 348.111537 
L 538.322955 346.754739 
L 538.322955 346.754739 
L 545.010341 345.442369 
L 545.010341 345.442369 
L 545.010341 345.442369 
L 558.385114 342.888999 
L 558.385114 342.888999 
L 565.0725 341.600812 
L 565.0725 341.600812 
L 565.0725 341.600812 
L 571.759886 340.282727 
L 571.759886 340.282727 
L 598.509432 334.5223 
L 598.509432 334.5223 
L 605.196818 332.941309 
L 605.196818 332.941309 
L 611.884205 331.303532 
L 611.884205 331.303532 
L 611.884205 331.303532 
" clip-path="url(#p7cf0eb762e)" style="fill: none; stroke: #17becf; stroke-width: 2.25; stroke-linecap: square"/>
   </g>
   <g id="patch_3">
    <path d="M 50.14375 365.558125 
L 50.14375 22.318125 
" style="fill: none; stroke: #000000; stroke-width: 0.8; stroke-linejoin: miter; stroke-linecap: square"/>
   </g>
   <g id="patch_4">
    <path d="M 50.14375 365.558125 
L 638.63375 365.558125 
" style="fill: none; stroke: #000000; stroke-width: 0.8; stroke-linejoin: miter; stroke-linecap: square"/>
   </g>
   <g id="text_18">
    <!-- Relative frequency of all inner life verbs over time per language (lowess) -->
    <g transform="translate(125.408437 16.318125)scale(0.12 -0.12)">
     <defs>
      <path id="DejaVuSans-62" d="M 3116 1747 
Q 3116 2381 2855 2742 
Q 2594 3103 2138 3103 
Q 1681 3103 1420 2742 
Q 1159 2381 1159 1747 
Q 1159 1113 1420 752 
Q 1681 391 2138 391 
Q 2594 391 2855 752 
Q 3116 1113 3116 1747 
z
M 1159 2969 
Q 1341 3281 1617 3432 
Q 1894 3584 2278 3584 
Q 2916 3584 3314 3078 
Q 3713 2572 3713 1747 
Q 3713 922 3314 415 
Q 2916 -91 2278 -91 
Q 1894 -91 1617 61 
Q 1341 213 1159 525 
L 1159 0 
L 581 0 
L 581 4863 
L 1159 4863 
L 1159 2969 
z
" transform="scale(0.015625)"/>
      <path id="DejaVuSans-73" d="M 2834 3397 
L 2834 2853 
Q 2591 2978 2328 3040 
Q 2066 3103 1784 3103 
Q 1356 3103 1142 2972 
Q 928 2841 928 2578 
Q 928 2378 1081 2264 
Q 1234 2150 1697 2047 
L 1894 2003 
Q 2506 1872 2764 1633 
Q 3022 1394 3022 966 
Q 3022 478 2636 193 
Q 2250 -91 1575 -91 
Q 1294 -91 989 -36 
Q 684 19 347 128 
L 347 722 
Q 666 556 975 473 
Q 1284 391 1588 391 
Q 1994 391 2212 530 
Q 2431 669 2431 922 
Q 2431 1156 2273 1281 
Q 2116 1406 1581 1522 
L 1381 1569 
Q 847 1681 609 1914 
Q 372 2147 372 2553 
Q 372 3047 722 3315 
Q 1072 3584 1716 3584 
Q 2034 3584 2315 3537 
Q 2597 3491 2834 3397 
z
" transform="scale(0.015625)"/>
      <path id="DejaVuSans-67" d="M 2906 1791 
Q 2906 2416 2648 2759 
Q 2391 3103 1925 3103 
Q 1463 3103 1205 2759 
Q 947 2416 947 1791 
Q 947 1169 1205 825 
Q 1463 481 1925 481 
Q 2391 481 2648 825 
Q 2906 1169 2906 1791 
z
M 3481 434 
Q 3481 -459 3084 -895 
Q 2688 -1331 1869 -1331 
Q 1566 -1331 1297 -1286 
Q 1028 -1241 775 -1147 
L 775 -588 
Q 1028 -725 1275 -790 
Q 1522 -856 1778 -856 
Q 2344 -856 2625 -561 
Q 2906 -266 2906 331 
L 2906 616 
Q 2728 306 2450 153 
Q 2172 0 1784 0 
Q 1141 0 747 490 
Q 353 981 353 1791 
Q 353 2603 747 3093 
Q 1141 3584 1784 3584 
Q 2172 3584 2450 3431 
Q 2728 3278 2906 2969 
L 2906 3500 
L 3481 3500 
L 3481 434 
z
" transform="scale(0.015625)"/>
      <path id="DejaVuSans-28" d="M 1984 4856 
Q 1566 4138 1362 3434 
Q 1159 2731 1159 2009 
Q 1159 1288 1364 580 
Q 1569 -128 1984 -844 
L 1484 -844 
Q 1016 -109 783 600 
Q 550 1309 550 2009 
Q 550 2706 781 3412 
Q 1013 4119 1484 4856 
L 1984 4856 
z
" transform="scale(0.015625)"/>
      <path id="DejaVuSans-77" d="M 269 3500 
L 844 3500 
L 1563 769 
L 2278 3500 
L 2956 3500 
L 3675 769 
L 4391 3500 
L 4966 3500 
L 4050 0 
L 3372 0 
L 2619 2869 
L 1863 0 
L 1184 0 
L 269 3500 
z
" transform="scale(0.015625)"/>
      <path id="DejaVuSans-29" d="M 513 4856 
L 1013 4856 
Q 1481 4119 1714 3412 
Q 1947 2706 1947 2009 
Q 1947 1309 1714 600 
Q 1481 -109 1013 -844 
L 513 -844 
Q 928 -128 1133 580 
Q 1338 1288 1338 2009 
Q 1338 2731 1133 3434 
Q 928 4138 513 4856 
z
" transform="scale(0.015625)"/>
     </defs>
     <use xlink:href="#DejaVuSans-52"/>
     <use xlink:href="#DejaVuSans-65" x="64.982422"/>
     <use xlink:href="#DejaVuSans-6c" x="126.505859"/>
     <use xlink:href="#DejaVuSans-61" x="154.289062"/>
     <use xlink:href="#DejaVuSans-74" x="215.568359"/>
     <use xlink:href="#DejaVuSans-69" x="254.777344"/>
     <use xlink:href="#DejaVuSans-76" x="282.560547"/>
     <use xlink:href="#DejaVuSans-65" x="341.740234"/>
     <use xlink:href="#DejaVuSans-20" x="403.263672"/>
     <use xlink:href="#DejaVuSans-66" x="435.050781"/>
     <use xlink:href="#DejaVuSans-72" x="470.255859"/>
     <use xlink:href="#DejaVuSans-65" x="509.119141"/>
     <use xlink:href="#DejaVuSans-71" x="570.642578"/>
     <use xlink:href="#DejaVuSans-75" x="634.119141"/>
     <use xlink:href="#DejaVuSans-65" x="697.498047"/>
     <use xlink:href="#DejaVuSans-6e" x="759.021484"/>
     <use xlink:href="#DejaVuSans-63" x="822.400391"/>
     <use xlink:href="#DejaVuSans-79" x="877.380859"/>
     <use xlink:href="#DejaVuSans-20" x="936.560547"/>
     <use xlink:href="#DejaVuSans-6f" x="968.347656"/>
     <use xlink:href="#DejaVuSans-66" x="1029.529297"/>
     <use xlink:href="#DejaVuSans-20" x="1064.734375"/>
     <use xlink:href="#DejaVuSans-61" x="1096.521484"/>
     <use xlink:href="#DejaVuSans-6c" x="1157.800781"/>
     <use xlink:href="#DejaVuSans-6c" x="1185.583984"/>
     <use xlink:href="#DejaVuSans-20" x="1213.367188"/>
     <use xlink:href="#DejaVuSans-69" x="1245.154297"/>
     <use xlink:href="#DejaVuSans-6e" x="1272.9375"/>
     <use xlink:href="#DejaVuSans-6e" x="1336.316406"/>
     <use xlink:href="#DejaVuSans-65" x="1399.695312"/>
     <use xlink:href="#DejaVuSans-72" x="1461.21875"/>
     <use xlink:href="#DejaVuSans-20" x="1502.332031"/>
     <use xlink:href="#DejaVuSans-6c" x="1534.119141"/>
     <use xlink:href="#DejaVuSans-69" x="1561.902344"/>
     <use xlink:href="#DejaVuSans-66" x="1589.685547"/>
     <use xlink:href="#DejaVuSans-65" x="1624.890625"/>
     <use xlink:href="#DejaVuSans-20" x="1686.414062"/>
     <use xlink:href="#DejaVuSans-76" x="1718.201172"/>
     <use xlink:href="#DejaVuSans-65" x="1777.380859"/>
     <use xlink:href="#DejaVuSans-72" x="1838.904297"/>
     <use xlink:href="#DejaVuSans-62" x="1880.017578"/>
     <use xlink:href="#DejaVuSans-73" x="1943.494141"/>
     <use xlink:href="#DejaVuSans-20" x="1995.59375"/>
     <use xlink:href="#DejaVuSans-6f" x="2027.380859"/>
     <use xlink:href="#DejaVuSans-76" x="2088.5625"/>
     <use xlink:href="#DejaVuSans-65" x="2147.742188"/>
     <use xlink:href="#DejaVuSans-72" x="2209.265625"/>
     <use xlink:href="#DejaVuSans-20" x="2250.378906"/>
     <use xlink:href="#DejaVuSans-74" x="2282.166016"/>
     <use xlink:href="#DejaVuSans-69" x="2321.375"/>
     <use xlink:href="#DejaVuSans-6d" x="2349.158203"/>
     <use xlink:href="#DejaVuSans-65" x="2446.570312"/>
     <use xlink:href="#DejaVuSans-20" x="2508.09375"/>
     <use xlink:href="#DejaVuSans-70" x="2539.880859"/>
     <use xlink:href="#DejaVuSans-65" x="2603.357422"/>
     <use xlink:href="#DejaVuSans-72" x="2664.880859"/>
     <use xlink:href="#DejaVuSans-20" x="2705.994141"/>
     <use xlink:href="#DejaVuSans-6c" x="2737.78125"/>
     <use xlink:href="#DejaVuSans-61" x="2765.564453"/>
     <use xlink:href="#DejaVuSans-6e" x="2826.84375"/>
     <use xlink:href="#DejaVuSans-67" x="2890.222656"/>
     <use xlink:href="#DejaVuSans-75" x="2953.699219"/>
     <use xlink:href="#DejaVuSans-61" x="3017.078125"/>
     <use xlink:href="#DejaVuSans-67" x="3078.357422"/>
     <use xlink:href="#DejaVuSans-65" x="3141.833984"/>
     <use xlink:href="#DejaVuSans-20" x="3203.357422"/>
     <use xlink:href="#DejaVuSans-28" x="3235.144531"/>
     <use xlink:href="#DejaVuSans-6c" x="3274.158203"/>
     <use xlink:href="#DejaVuSans-6f" x="3301.941406"/>
     <use xlink:href="#DejaVuSans-77" x="3363.123047"/>
     <use xlink:href="#DejaVuSans-65" x="3444.910156"/>
     <use xlink:href="#DejaVuSans-73" x="3506.433594"/>
     <use xlink:href="#DejaVuSans-73" x="3558.533203"/>
     <use xlink:href="#DejaVuSans-29" x="3610.632812"/>
    </g>
   </g>
   <g id="legend_1">
    <g id="patch_5">
     <path d="M 640.63375 262.586125 
L 699.19625 262.586125 
Q 701.19625 262.586125 701.19625 260.586125 
L 701.19625 100.12675 
Q 701.19625 98.12675 699.19625 98.12675 
L 640.63375 98.12675 
Q 638.63375 98.12675 638.63375 100.12675 
L 638.63375 260.586125 
Q 638.63375 262.586125 640.63375 262.586125 
z
" style="fill: #ffffff; opacity: 0.8; stroke: #cccccc; stroke-linejoin: miter"/>
    </g>
    <g id="text_19">
     <!-- Languages -->
     <g transform="translate(642.63375 109.725187)scale(0.1 -0.1)">
      <defs>
       <path id="DejaVuSans-4c" d="M 628 4666 
L 1259 4666 
L 1259 531 
L 3531 531 
L 3531 0 
L 628 0 
L 628 4666 
z
" transform="scale(0.015625)"/>
      </defs>
      <use xlink:href="#DejaVuSans-4c"/>
      <use xlink:href="#DejaVuSans-61" x="55.712891"/>
      <use xlink:href="#DejaVuSans-6e" x="116.992188"/>
      <use xlink:href="#DejaVuSans-67" x="180.371094"/>
      <use xlink:href="#DejaVuSans-75" x="243.847656"/>
      <use xlink:href="#DejaVuSans-61" x="307.226562"/>
      <use xlink:href="#DejaVuSans-67" x="368.505859"/>
      <use xlink:href="#DejaVuSans-65" x="431.982422"/>
      <use xlink:href="#DejaVuSans-73" x="493.505859"/>
     </g>
    </g>
    <g id="line2d_26">
     <path d="M 646.042344 120.903312 
L 656.042344 120.903312 
L 666.042344 120.903312 
" style="fill: none; stroke: #1f77b4; stroke-width: 2.25; stroke-linecap: square"/>
    </g>
    <g id="text_20">
     <!-- rom -->
     <g transform="translate(674.042344 124.403312)scale(0.1 -0.1)">
      <use xlink:href="#DejaVuSans-72"/>
      <use xlink:href="#DejaVuSans-6f" x="38.863281"/>
      <use xlink:href="#DejaVuSans-6d" x="100.044922"/>
     </g>
    </g>
    <g id="line2d_27">
     <path d="M 646.042344 135.581437 
L 656.042344 135.581437 
L 666.042344 135.581437 
" style="fill: none; stroke: #ff7f0e; stroke-width: 2.25; stroke-linecap: square"/>
    </g>
    <g id="text_21">
     <!-- nor -->
     <g transform="translate(674.042344 139.081437)scale(0.1 -0.1)">
      <use xlink:href="#DejaVuSans-6e"/>
      <use xlink:href="#DejaVuSans-6f" x="63.378906"/>
      <use xlink:href="#DejaVuSans-72" x="124.560547"/>
     </g>
    </g>
    <g id="line2d_28">
     <path d="M 646.042344 150.259562 
L 656.042344 150.259562 
L 666.042344 150.259562 
" style="fill: none; stroke: #2ca02c; stroke-width: 2.25; stroke-linecap: square"/>
    </g>
    <g id="text_22">
     <!-- deu -->
     <g transform="translate(674.042344 153.759562)scale(0.1 -0.1)">
      <use xlink:href="#DejaVuSans-64"/>
      <use xlink:href="#DejaVuSans-65" x="63.476562"/>
      <use xlink:href="#DejaVuSans-75" x="125"/>
     </g>
    </g>
    <g id="line2d_29">
     <path d="M 646.042344 164.937687 
L 656.042344 164.937687 
L 666.042344 164.937687 
" style="fill: none; stroke: #d62728; stroke-width: 2.25; stroke-linecap: square"/>
    </g>
    <g id="text_23">
     <!-- slv -->
     <g transform="translate(674.042344 168.437687)scale(0.1 -0.1)">
      <use xlink:href="#DejaVuSans-73"/>
      <use xlink:href="#DejaVuSans-6c" x="52.099609"/>
      <use xlink:href="#DejaVuSans-76" x="79.882812"/>
     </g>
    </g>
    <g id="line2d_30">
     <path d="M 646.042344 179.615812 
L 656.042344 179.615812 
L 666.042344 179.615812 
" style="fill: none; stroke: #9467bd; stroke-width: 2.25; stroke-linecap: square"/>
    </g>
    <g id="text_24">
     <!-- spa -->
     <g transform="translate(674.042344 183.115812)scale(0.1 -0.1)">
      <use xlink:href="#DejaVuSans-73"/>
      <use xlink:href="#DejaVuSans-70" x="52.099609"/>
      <use xlink:href="#DejaVuSans-61" x="115.576172"/>
     </g>
    </g>
    <g id="line2d_31">
     <path d="M 646.042344 194.293937 
L 656.042344 194.293937 
L 666.042344 194.293937 
" style="fill: none; stroke: #8c564b; stroke-width: 2.25; stroke-linecap: square"/>
    </g>
    <g id="text_25">
     <!-- hun -->
     <g transform="translate(674.042344 197.793937)scale(0.1 -0.1)">
      <defs>
       <path id="DejaVuSans-68" d="M 3513 2113 
L 3513 0 
L 2938 0 
L 2938 2094 
Q 2938 2591 2744 2837 
Q 2550 3084 2163 3084 
Q 1697 3084 1428 2787 
Q 1159 2491 1159 1978 
L 1159 0 
L 581 0 
L 581 4863 
L 1159 4863 
L 1159 2956 
Q 1366 3272 1645 3428 
Q 1925 3584 2291 3584 
Q 2894 3584 3203 3211 
Q 3513 2838 3513 2113 
z
" transform="scale(0.015625)"/>
      </defs>
      <use xlink:href="#DejaVuSans-68"/>
      <use xlink:href="#DejaVuSans-75" x="63.378906"/>
      <use xlink:href="#DejaVuSans-6e" x="126.757812"/>
     </g>
    </g>
    <g id="line2d_32">
     <path d="M 646.042344 208.972062 
L 656.042344 208.972062 
L 666.042344 208.972062 
" style="fill: none; stroke: #e377c2; stroke-width: 2.25; stroke-linecap: square"/>
    </g>
    <g id="text_26">
     <!-- fra -->
     <g transform="translate(674.042344 212.472062)scale(0.1 -0.1)">
      <use xlink:href="#DejaVuSans-66"/>
      <use xlink:href="#DejaVuSans-72" x="35.205078"/>
      <use xlink:href="#DejaVuSans-61" x="76.318359"/>
     </g>
    </g>
    <g id="line2d_33">
     <path d="M 646.042344 223.650187 
L 656.042344 223.650187 
L 666.042344 223.650187 
" style="fill: none; stroke: #7f7f7f; stroke-width: 2.25; stroke-linecap: square"/>
    </g>
    <g id="text_27">
     <!-- por -->
     <g transform="translate(674.042344 227.150187)scale(0.1 -0.1)">
      <use xlink:href="#DejaVuSans-70"/>
      <use xlink:href="#DejaVuSans-6f" x="63.476562"/>
      <use xlink:href="#DejaVuSans-72" x="124.658203"/>
     </g>
    </g>
    <g id="line2d_34">
     <path d="M 646.042344 238.328312 
L 656.042344 238.328312 
L 666.042344 238.328312 
" style="fill: none; stroke: #bcbd22; stroke-width: 2.25; stroke-linecap: square"/>
    </g>
    <g id="text_28">
     <!-- eng -->
     <g transform="translate(674.042344 241.828312)scale(0.1 -0.1)">
      <use xlink:href="#DejaVuSans-65"/>
      <use xlink:href="#DejaVuSans-6e" x="61.523438"/>
      <use xlink:href="#DejaVuSans-67" x="124.902344"/>
     </g>
    </g>
    <g id="line2d_35">
     <path d="M 646.042344 253.006437 
L 656.042344 253.006437 
L 666.042344 253.006437 
" style="fill: none; stroke: #17becf; stroke-width: 2.25; stroke-linecap: square"/>
    </g>
    <g id="text_29">
     <!-- srp -->
     <g transform="translate(674.042344 256.506437)scale(0.1 -0.1)">
      <use xlink:href="#DejaVuSans-73"/>
      <use xlink:href="#DejaVuSans-72" x="52.099609"/>
      <use xlink:href="#DejaVuSans-70" x="93.212891"/>
     </g>
    </g>
   </g>
  </g>
 </g>
 <defs>
  <clipPath id="p7cf0eb762e">
   <rect x="50.14375" y="22.318125" width="588.49" height="343.24"/>
  </clipPath>
 </defs>
</svg>
